<?xml version="1.0" encoding="UTF-8" standalone="no"?>
<svg
   xmlns:dc="http://purl.org/dc/elements/1.1/"
   xmlns:cc="http://creativecommons.org/ns#"
   xmlns:rdf="http://www.w3.org/1999/02/22-rdf-syntax-ns#"
   xmlns:svg="http://www.w3.org/2000/svg"
   xmlns="http://www.w3.org/2000/svg"
   xmlns:sodipodi="http://sodipodi.sourceforge.net/DTD/sodipodi-0.dtd"
   xmlns:inkscape="http://www.inkscape.org/namespaces/inkscape"
   version="1.1"
   x="0px"
   y="0px"
   viewBox="0 0 100 100"
   enable-background="new 0 0 100 100"
   xml:space="preserve"
   id="svg2"
   inkscape:version="0.91 r13725"
   sodipodi:docname="tram.svg"
   inkscape:export-filename="C:\dev\web\vr\csweb\images\tram.png"
   inkscape:export-xdpi="25"
   inkscape:export-ydpi="25"><metadata
     id="metadata126"><rdf:RDF><cc:Work
         rdf:about=""><dc:format>image/svg+xml</dc:format><dc:type
           rdf:resource="http://purl.org/dc/dcmitype/StillImage" /></cc:Work></rdf:RDF></metadata><defs
     id="defs124" /><sodipodi:namedview
     pagecolor="#ffffff"
     bordercolor="#666666"
     borderopacity="1"
     objecttolerance="10"
     gridtolerance="10"
     guidetolerance="10"
     inkscape:pageopacity="0"
     inkscape:pageshadow="2"
     inkscape:window-width="1600"
     inkscape:window-height="821"
     id="namedview122"
     showgrid="false"
     inkscape:zoom="2.8284271"
     inkscape:cx="14.321084"
     inkscape:cy="79.66519"
     inkscape:window-x="-9"
     inkscape:window-y="-9"
     inkscape:window-maximized="1"
     inkscape:current-layer="svg2" /><g
     id="g114"><g
       id="g116"><g
         id="g118"><path
           fill-rule="evenodd"
           clip-rule="evenodd"
           fill="#000000"
           d="M36.159,5.084c1.265-1.773,3.559-1.539,3.559-1.539     l10.115,10.901l0.416-0.014l0.419,0.014L60.834,3.545c0,0,2.241-0.234,3.509,1.539c1.266,1.772,0.505-3.091-2.28-3.091H38.436     C35.651,1.993,34.89,6.856,36.159,5.084z M50.249,3.564l8.337,0.003l-8.18,8.541v-0.049l-0.157,0.179l-0.154-0.179v0.049     l-7.981-8.541L50.249,3.564z M25.53,98h5.115l4.052-8.163h-2.842L25.53,98z M66.251,89.837L70.021,98h5.113l-6.041-8.163H66.251z      M40.639,86.644h19.577v-5.689H40.639V86.644z M79.9,25.144c0-5.012-20.697-5.384-20.697-5.384l-3.48-3.716L44.975,15.99     l-4.485,3.742c0,0-17.198,0.306-19.702,5.412c0,0,0.069,50.34,0.069,52.939s5.089,8.572,8.566,8.572     c5.035,0,8.425,0.027,8.425,0.027l-0.074-8.475h25.463l-0.005,8.527c0,0,4.46-0.086,8.712-0.086c4.251,0,8.056-7.502,8.056-8.552     C80,74.295,79.9,25.144,79.9,25.144z M41.551,25.593c0,0.066,0.012,0.131,0.02,0.196c0.096-0.791,0.76-1.407,1.58-1.407h14.4     c0.818,0,1.486,0.617,1.582,1.407c0.008-0.065,0.02-0.13,0.02-0.196v0.389c0-0.066-0.012-0.128-0.02-0.192     c-0.096,0.812-0.764,1.571-1.582,1.571h-14.4c-0.82,0-1.484-0.759-1.58-1.571c-0.008,0.064-0.02,0.126-0.02,0.192V25.593z      M30.788,76.148c-1.255,0-2.27-1.029-2.27-2.295c0-1.268,1.015-2.293,2.27-2.293c1.251,0,2.269,1.025,2.269,2.293     C33.057,75.119,32.039,76.148,30.788,76.148z M49.124,55.239c0,1.768-1.43,3.197-3.198,3.197h-18.97     c-1.77,0-3.201-1.43-3.201-3.197v-21.86c0-1.768,1.431-3.201,3.201-3.201h18.97c1.769,0,3.198,1.434,3.198,3.201V55.239z      M70.364,76.324c-1.252,0-2.27-1.028-2.27-2.293c0-1.27,1.018-2.295,2.27-2.295c1.254,0,2.271,1.025,2.271,2.295     C72.636,75.296,71.618,76.324,70.364,76.324z M77.356,55.239c0,1.768-1.432,3.197-3.199,3.197H55.1     c-1.771,0-3.201-1.43-3.201-3.197v-21.86c0-1.768,1.431-3.201,3.201-3.201h19.058c1.768,0,3.199,1.434,3.199,3.201V55.239z"
           id="path120" /></g></g></g><path
     style="fill:#ff0000"
     d="m 20.824403,38.040367 -0.02463,-12.867592 0.134102,-0.239494 c 1.350356,-2.411609 6.73421,-4.172025 15.029532,-4.914365 1.084599,-0.09706 2.503824,-0.18895 3.67531,-0.237965 0.655181,-0.02741 0.885187,-0.05038 0.93551,-0.09341 0.0367,-0.03138 1.044123,-0.872757 2.238717,-1.869721 l 2.171989,-1.812663 5.370526,0.02946 5.370526,0.02946 0.180415,0.201306 c 0.09923,0.110719 0.876801,0.944256 1.727939,1.852306 l 1.547525,1.650999 0.681775,0.02656 c 9.137981,0.356037 15.721604,1.502719 18.466409,3.216329 l 0.189092,0.118052 0,13.889162 0,13.889162 -0.576724,0 -0.576724,0 -0.01123,-9.06648 c -0.01261,-10.17679 0.01847,-9.183934 -0.308785,-9.865753 -0.39266,-0.818085 -1.137839,-1.441679 -2.04963,-1.715207 -0.226796,-0.06804 -0.743352,-0.07224 -10.230892,-0.08334 -8.985617,-0.01051 -10.023645,-0.0053 -10.305838,0.05132 -1.257523,0.252505 -2.249726,1.239997 -2.509484,2.49757 -0.05619,0.272017 -0.06286,1.253556 -0.06286,9.243115 l 0,8.93878 -1.373407,0 -1.373408,0 0,-8.913695 c 0,-9.663598 0.01084,-9.171794 -0.215331,-9.771392 -0.296185,-0.785217 -1.012034,-1.518558 -1.784012,-1.827602 -0.604905,-0.24216 0.07124,-0.227822 -10.707975,-0.227065 -10.721006,7.52e-4 -10.055125,-0.01308 -10.669159,0.22156 -0.539334,0.206091 -1.13026,0.678588 -1.463218,1.16997 -0.203728,0.300662 -0.290865,0.480694 -0.424423,0.876887 l -0.114067,0.338376 -0.01054,9.066481 -0.01054,9.06648 -1.445926,0 -1.445927,0 -0.02463,-12.867592 z M 58.14148,27.232207 c 0.14493,-0.07135 0.353225,-0.220425 0.467093,-0.334293 0.201059,-0.20106 0.483812,-0.688307 0.483812,-0.833718 0,-0.03956 0.01791,-0.08299 0.03981,-0.09652 0.04831,-0.02986 0.05261,-0.273055 0.0065,-0.368773 -0.01831,-0.03802 -0.09129,-0.188835 -0.162186,-0.335148 -0.212848,-0.439265 -0.626364,-0.760914 -1.110231,-0.86358 -0.277388,-0.05886 -14.704682,-0.06398 -15.013926,-0.0053 -0.552124,0.104708 -0.990134,0.486467 -1.228331,1.070582 -0.108162,0.265237 -0.10911,0.365391 -0.006,0.636602 0.192587,0.506703 0.40123,0.79701 0.729325,1.014788 0.420347,0.279011 -0.197228,0.259753 8.067545,0.251569 l 7.465017,-0.0074 0.261577,-0.128778 z"
     id="path3463"
     inkscape:connector-curvature="0" /><path
     style="fill:#ff0000"
     d="m 63.280255,82.391712 0,-4.270693 -12.81586,0 -12.81586,0 0.102569,4.219745 0.102566,4.219746 -4.560555,0 c -3.864186,0 -4.664384,-0.04025 -5.24053,-0.263609 -2.279838,-0.883836 -5.153589,-3.68529 -6.590081,-6.42429 L 21.003185,78.996815 20.96,65.023885 l -0.04319,-13.97293 1.356879,0 1.356879,0 0,2.158787 c 0,1.187333 0.08366,2.491032 0.185912,2.897108 0.233606,0.927736 1.221388,1.957432 2.14148,2.232347 0.899204,0.268677 20.138137,0.282099 20.937064,0.0146 0.823567,-0.27574 1.54163,-0.879473 1.926078,-1.619399 0.301958,-0.581168 0.355732,-0.991992 0.415645,-3.175489 l 0.06881,-2.507962 1.254862,0 1.25486,0 0.0035,2.428344 c 0.0029,2.003779 0.0542,2.539944 0.293474,3.066653 0.364698,0.802785 1.264647,1.602896 2.047403,1.820269 0.855029,0.237444 20.124991,0.228586 20.983126,-0.0096 0.830828,-0.230649 1.900338,-1.300159 2.130987,-2.130987 0.09717,-0.350029 0.17708,-1.652976 0.177567,-2.895436 l 8.82e-4,-2.259008 0.517516,-0.0499 0.517516,-0.0499 0.04069,-13.813695 c 0.02238,-7.597532 0.09946,-13.813694 0.171288,-13.813694 0.168951,0 0.734599,0.621911 0.954265,1.049183 0.119563,0.232566 0.178651,8.431013 0.196425,27.254312 l 0.02542,26.921688 -0.635769,1.270228 c -0.349672,0.698624 -0.943171,1.726382 -1.318884,2.283904 -0.963505,1.429749 -2.928116,3.352082 -3.971651,3.886182 -0.984572,0.503922 -1.045634,0.509062 -7.125797,0.599979 l -3.542993,0.05298 0,-4.270692 z m 8.241901,-6.339897 c 1.062127,-0.647587 1.442511,-1.970025 0.897198,-3.119189 -0.759703,-1.600952 -3.346521,-1.600952 -4.106223,0 -0.758578,1.598586 0.339223,3.43561 2.053111,3.43561 0.355298,0 0.866422,-0.139916 1.155914,-0.316421 z M 31.90349,75.87671 c 0.800836,-0.450094 1.184581,-1.141406 1.170004,-2.107742 -0.01988,-1.317858 -0.956101,-2.237857 -2.277316,-2.237857 -1.79961,0 -2.876926,1.791879 -2.040192,3.393413 0.637044,1.21932 1.960069,1.619562 3.147504,0.952186 z"
     id="path3465"
     inkscape:connector-curvature="0" /><path
     style="fill:#ff0000"
     d="m 77.625341,50.88526 c 0.162562,-0.01137 0.428571,-0.01137 0.591132,0 0.162562,0.01137 0.02956,0.02068 -0.295566,0.02068 -0.325122,0 -0.458127,-0.0093 -0.295566,-0.02068 z"
     id="path3467"
     inkscape:connector-curvature="0" /><path
     style="fill:#ff0000"
     d="m 77.709789,50.885754 c 0.116115,-0.01215 0.306122,-0.01215 0.422237,0 0.116115,0.01215 0.02111,0.02208 -0.211119,0.02208 -0.23223,0 -0.327234,-0.0099 -0.211118,-0.02208 z"
     id="path3469"
     inkscape:connector-curvature="0" /><path
     style="fill:#ff0000"
     d="m 77.371245,52.93943 -0.01332,-2.012665 0.548909,0.0081 0.548908,0.0081 -0.520036,0.054 -0.520037,0.054 -0.01555,1.950573 -0.01555,1.950574 -0.01332,-2.012665 z"
     id="path3471"
     inkscape:connector-curvature="0" /><path
     style="fill:#ff0000"
     d="m 77.502626,50.989464 c -0.04034,-0.06526 0.161444,-0.117266 0.458738,-0.118228 0.188164,-6.09e-4 0.230769,0.01677 0.205096,0.08368 -0.03613,0.09416 -0.608579,0.123956 -0.663834,0.03455 z"
     id="path3473"
     inkscape:connector-curvature="0" /><path
     style="fill:#ff0000"
     d="m 78.259136,50.950732 c -0.0046,-0.0074 0.02075,-0.01315 0.05839,-0.01315 0.07666,0 0.07748,0.0066 0.0023,0.01819 -0.02889,0.0045 -0.05618,0.0022 -0.06065,-0.005 z"
     id="path3475"
     inkscape:connector-curvature="0" /><path
     style="fill:#ff0000"
     d="m 78.390778,50.942044 c 0.01016,-0.0041 0.0223,-0.0036 0.02698,0.0011 0.0047,0.0047 -0.0036,0.008 -0.01847,0.0074 -0.0164,-6.76e-4 -0.01973,-0.004 -0.0085,-0.0085 z"
     id="path3477"
     inkscape:connector-curvature="0" /><path
     style="fill:#ff0000"
     d="m 63.98105,58.914351 10e-7,-0.369458 1.945809,-0.004 c 4.763164,-0.0098 8.379431,-0.07292 9.08514,-0.158627 0.46935,-0.057 1.17551,-0.539084 1.687825,-1.152246 0.302315,-0.361823 0.518964,-0.746603 0.588015,-1.044344 0.04788,-0.206448 0.09476,-0.689473 0.135756,-1.398701 0.0085,-0.147079 0.01986,-1.038258 0.02523,-1.980397 0.0054,-0.942139 0.0142,-1.7174 0.0196,-1.722803 0.0054,-0.0054 0.08115,-0.01752 0.168322,-0.02694 l 0.158499,-0.01711 -0.175933,-0.0016 c -0.09676,-8.79e-4 -0.183519,0.0032 -0.192791,0.0091 -0.0128,0.0081 -0.01958,0.359968 -0.02815,1.460022 l -0.01129,1.449304 -0.0086,-0.886698 c -0.0047,-0.487684 -0.0095,-1.166959 -0.01056,-1.509499 l -0.002,-0.6228 0.08093,-1.91e-4 c 0.04451,-1.13e-4 0.09571,-0.0042 0.113786,-0.009 0.05669,-0.01518 0.0038,-0.03259 -0.09971,-0.03283 l -0.095,-2.16e-4 0,-3.096408 0,-3.096407 1.229872,0 1.22987,0 0.0088,0.580577 c 0.0049,0.319317 0.01035,3.600101 0.01221,7.290631 l 0.0034,6.710055 -7.934543,0 -7.934543,0 0,-0.369458 z m 14.325893,-7.920696 c 0.08016,-0.0076 0.155005,-0.01385 0.166311,-0.01385 0.01412,0 0.01916,-0.01212 0.0161,-0.03871 -0.0054,-0.04713 -0.03559,-0.05281 -0.205748,-0.0387 -0.119948,0.0099 -0.149116,0.03289 -0.06496,0.05111 0.04088,0.0089 0.04084,0.0089 -0.0082,0.01165 -0.02709,0.0015 -0.08093,0.01466 -0.119634,0.02921 l -0.07037,0.02645 0.07037,-0.0067 c 0.03871,-0.0037 0.135963,-0.01289 0.216129,-0.02051 z"
     id="path3479"
     inkscape:connector-curvature="0" /><path
     style="fill:#ff0000"
     d="m 63.98105,58.913041 0,-0.370769 2.755098,-0.0089 c 4.734518,-0.01527 7.889827,-0.0772 8.346596,-0.163828 0.583652,-0.110687 1.471866,-0.832645 1.924362,-1.564159 0.215973,-0.349146 0.289133,-0.568744 0.337182,-1.012085 0.07712,-0.711563 0.09293,-1.183197 0.101794,-3.036591 0.0044,-0.923116 0.01195,-1.678935 0.01674,-1.679597 0.0048,-6.63e-4 0.06888,-0.0096 0.142419,-0.0199 l 0.133708,-0.01869 -0.150162,0.0023 c -0.08259,0.0013 -0.155425,0.0076 -0.161858,0.01402 -0.01158,0.0116 -0.02593,0.9995 -0.03409,2.345772 l -0.0042,0.696692 -0.0093,-0.774102 c -0.0051,-0.425756 -0.01023,-1.136698 -0.01132,-1.579871 l -0.002,-0.80577 0.08093,-9.89e-4 c 0.130518,-0.0016 0.155707,-0.02501 0.02815,-0.02617 l -0.109078,-9.89e-4 0,-3.103444 0,-3.103445 1.231967,0 c 0.973295,0 1.233108,0.0037 1.237396,0.01759 0.003,0.0097 0.0089,3.29046 0.0131,7.290631 l 0.0077,7.273038 -7.937523,0 -7.937523,0 0,-0.370768 z m 14.428948,-7.931128 c 0.06247,-0.0076 0.0749,-0.01381 0.0749,-0.03729 0,-0.02599 -0.01074,-0.02846 -0.139744,-0.03221 -0.169721,-0.0049 -0.229258,0.01407 -0.07841,0.02503 l 0.105559,0.0077 -0.08445,0.01072 c -0.04645,0.0059 -0.112949,0.01985 -0.147783,0.031 -0.06246,0.02 -0.06156,0.02017 0.06584,0.01225 0.07105,-0.0044 0.162885,-0.01214 0.204081,-0.01717 z"
     id="path3481"
     inkscape:connector-curvature="0" /><path
     style="fill:#ff0000"
     d="m 78.369054,50.913756 c 0.01369,-0.0036 0.03269,-0.0033 0.04222,5.22e-4 0.0095,0.0039 -0.0017,0.0068 -0.0249,0.0065 -0.02322,-2.87e-4 -0.03102,-0.0034 -0.01733,-0.007 z"
     id="path3483"
     inkscape:connector-curvature="0" /><path
     style="fill:#ff0000"
     d="m 78.217485,50.979544 c 0.03096,-0.0071 0.0943,-0.01777 0.140746,-0.02365 l 0.08445,-0.01069 -0.09852,-0.0084 -0.09852,-0.0084 0.116115,-0.0025 c 0.09089,-0.0019 0.116116,0.0018 0.116116,0.01706 0,0.0227 -0.04643,0.03233 -0.204082,0.04232 -0.08807,0.0056 -0.100334,0.0043 -0.0563,-0.0058 z"
     id="path3485"
     inkscape:connector-curvature="0" /><path
     style="fill:#ff0000"
     d="m 78.414529,50.937584 c 0.0048,-0.0077 0.01503,-0.01407 0.02277,-0.01407 0.0077,0 0.01016,0.0063 0.0054,0.01407 -0.0048,0.0077 -0.01503,0.01407 -0.02277,0.01407 -0.0077,0 -0.01016,-0.0063 -0.0054,-0.01407 z"
     id="path3487"
     inkscape:connector-curvature="0" /><path
     style="fill:#ff0000"
     d=""
     id="path3489"
     inkscape:connector-curvature="0" /><path
     style="fill:#ff0000"
     d="m 78.224522,50.924372 c 0,-0.0086 0.03082,-0.01494 0.07272,-0.01494 0.08706,0 0.08503,0.007 -0.0059,0.02017 -0.04385,0.0064 -0.06685,0.0046 -0.06685,-0.0052 z"
     id="path3491"
     inkscape:connector-curvature="0" /><path
     style="fill:#ff0000"
     d="m 63.98105,58.910833 0,-0.372977 1.53061,-2.29e-4 c 0.841836,-1.27e-4 2.306471,-0.0063 3.254746,-0.01383 3.920935,-0.03093 6.004267,-0.08474 6.353133,-0.164081 0.564483,-0.128382 1.378215,-0.784056 1.840075,-1.482659 0.127066,-0.192198 0.255854,-0.453686 0.300282,-0.609681 0.136946,-0.480854 0.189371,-1.597921 0.19016,-4.051885 l 3.64e-4,-1.135884 0.04574,-0.0071 c 0.218799,-0.03376 0.222391,-0.03519 0.077,-0.03059 -0.0757,0.0024 -0.141661,0.0084 -0.146584,0.0133 -0.0095,0.0095 -0.02822,1.274187 -0.0343,2.317234 l -0.0036,0.626319 -0.0094,-0.710766 c -0.0051,-0.390922 -0.01024,-1.079696 -0.01133,-1.530611 l -0.002,-0.819844 0.08093,-2.15e-4 c 0.04451,-1.13e-4 0.09043,-0.0064 0.10204,-0.01386 0.01471,-0.0095 -0.0099,-0.01371 -0.08093,-0.01386 l -0.102041,-2.16e-4 0,-3.103444 0,-3.103445 1.231967,0 c 0.973298,0 1.233107,0.0037 1.237391,0.01759 0.003,0.0097 0.0093,3.29046 0.014,7.290631 l 0.0086,7.273038 -7.938433,0 -7.938432,0 0,-0.372976 z m 14.392722,-7.925784 c 0.105238,-0.0099 0.130677,-0.02247 0.105891,-0.05233 -0.01357,-0.01635 -0.04895,-0.02076 -0.157432,-0.01962 -0.156159,0.0016 -0.193664,0.02352 -0.04493,0.02621 l 0.095,0.0017 -0.117936,0.01971 c -0.06487,0.01084 -0.128201,0.02622 -0.140746,0.03418 -0.02256,0.0143 0.02059,0.01267 0.260149,-0.0099 z"
     id="path3493"
     inkscape:connector-curvature="0" /><path
     style="fill:#ff0000"
     d="m 63.98105,58.910833 0,-0.372977 1.368752,-1.97e-4 c 1.588368,-2.28e-4 4.564302,-0.02107 5.985214,-0.04191 2.142167,-0.03143 3.453494,-0.07626 3.742085,-0.127932 0.259168,-0.04641 0.647478,-0.253751 0.994011,-0.530769 0.171779,-0.137321 0.478296,-0.436863 0.622284,-0.608125 0.278032,-0.330695 0.495634,-0.705643 0.574327,-0.989616 0.126942,-0.458088 0.181541,-1.694461 0.182354,-4.129374 l 3.43e-4,-1.030324 0.05278,-0.0087 c 0.146125,-0.02415 0.162963,-0.03375 0.04574,-0.02606 -0.0658,0.0043 -0.121716,0.0099 -0.12426,0.0124 -0.0057,0.0056 -0.0283,1.661452 -0.03274,2.399713 l -0.0033,0.541871 -0.0094,-0.640393 c -0.0052,-0.352217 -0.01028,-1.040991 -0.01135,-1.530611 l -0.002,-0.890217 0.07389,-2.15e-4 c 0.04064,-1.13e-4 0.08339,-0.0064 0.095,-0.01386 0.01479,-0.0096 -0.0074,-0.01371 -0.07389,-0.01386 l -0.095,-2.16e-4 0,-3.103444 0,-3.103445 1.230695,0 c 0.676882,0 1.233488,0.0048 1.236899,0.01056 0.0034,0.0058 0.01084,3.28659 0.01651,7.290632 l 0.0103,7.280075 -7.939664,0 -7.939664,0 0,-0.372976 z m 14.306808,-7.918236 c 0.06973,-0.0016 0.06992,-0.0017 0.02111,-0.01425 -0.05544,-0.01424 -0.151078,-0.0053 -0.18297,0.01711 -0.01565,0.01099 -0.0065,0.01275 0.03519,0.0068 0.03096,-0.0044 0.08797,-0.0088 0.126671,-0.0096 z m 0.189192,-0.03292 c 0.0279,-0.03361 -0.02559,-0.04945 -0.151916,-0.04498 -0.138982,0.0049 -0.168591,0.02207 -0.04314,0.025 0.05494,0.0013 0.07377,0.0049 0.04809,0.0094 l -0.04222,0.0072 0.04222,0.01009 c 0.07132,0.01705 0.129456,0.0144 0.146969,-0.0067 z"
     id="path3495"
     inkscape:connector-curvature="0" /><path
     style="fill:#ff0000"
     d="m 63.98105,58.910833 0,-0.372977 1.213932,-1.59e-4 c 3.789844,-4.97e-4 8.2375,-0.06079 9.37015,-0.127014 0.520684,-0.03045 0.626432,-0.05197 0.894901,-0.182151 0.330366,-0.160197 0.627978,-0.38231 0.970932,-0.724626 0.325226,-0.324622 0.524217,-0.58719 0.686271,-0.905535 0.143896,-0.282675 0.188056,-0.453717 0.23343,-0.904132 0.06631,-0.65825 0.08325,-1.210256 0.09491,-3.092644 l 0.0094,-1.523882 0.02937,-0.0059 c 0.01615,-0.0033 0.05377,-0.0099 0.08359,-0.01467 0.08607,-0.0139 0.05212,-0.02094 -0.04782,-0.0099 l -0.09085,0.01002 -0.0088,0.267417 c -0.0048,0.147079 -0.01434,0.808937 -0.02111,1.470794 -0.01207,1.179919 -0.01248,1.192265 -0.02094,0.633356 -0.0047,-0.313512 -0.0095,-1.002286 -0.01056,-1.530611 l -0.0019,-0.96059 0.06685,-2.15e-4 c 0.03677,-1.13e-4 0.07635,-0.0064 0.08797,-0.01386 0.01488,-0.0096 -0.0049,-0.01371 -0.06685,-0.01386 l -0.08797,-2.16e-4 0,-3.103444 0,-3.103445 1.230695,0 c 0.676882,0 1.233621,0.0048 1.237199,0.01056 0.0036,0.0058 0.0112,3.28659 0.01694,7.290632 l 0.01044,7.280075 -7.940101,0 -7.940102,0 0,-0.372976 z m 14.278659,-7.917968 c 0.06407,-0.0013 0.06661,-0.0025 0.02843,-0.01392 -0.04777,-0.01425 -0.144253,-0.0026 -0.157614,0.019 -0.0057,0.0092 0.0034,0.01115 0.02494,0.0054 0.01863,-0.005 0.06554,-0.0097 0.104242,-0.01046 z m 0.204081,-0.02695 c 0.01453,-0.0093 0.0036,-0.01107 -0.03519,-0.0058 l -0.0563,0.0077 0.03244,-0.02853 0.03244,-0.02853 -0.109854,0.0081 c -0.134056,0.0099 -0.150028,0.0183 -0.03831,0.02018 0.0607,0.001 0.07373,0.0043 0.04809,0.01201 l -0.03519,0.01061 0.04222,0.007 c 0.07171,0.01187 0.09772,0.01129 0.119634,-0.0027 z"
     id="path3497"
     inkscape:connector-curvature="0" /><path
     style="fill:#ff0000"
     d="m 63.98105,58.910833 0,-0.372977 1.150596,-1.5e-4 c 1.402982,-1.83e-4 4.580397,-0.02247 5.978177,-0.04192 2.346339,-0.03266 3.677513,-0.07733 3.966553,-0.133108 0.222448,-0.04292 0.503067,-0.17574 0.781899,-0.37007 0.393668,-0.274365 0.823275,-0.70957 1.082561,-1.096667 0.269548,-0.402418 0.353649,-0.652928 0.410338,-1.222258 0.06446,-0.647403 0.08182,-1.224295 0.09433,-3.135426 l 0.0096,-1.460552 0.02935,-0.0063 c 0.01614,-0.0035 0.04518,-0.009 0.06453,-0.01227 0.01935,-0.0033 3.52e-4,-0.0051 -0.04222,-0.0039 l -0.07741,0.002 -0.0086,0.323715 c -0.0047,0.178043 -0.01424,0.8399 -0.02111,1.470793 -0.01203,1.104043 -0.01282,1.127541 -0.0211,0.626319 -0.0047,-0.286418 -0.0095,-0.975192 -0.01056,-1.53061 l -0.0019,-1.009851 0.05982,-2.15e-4 c 0.0329,-1.13e-4 0.06932,-0.0064 0.08093,-0.01386 0.01498,-0.0097 -0.0024,-0.01371 -0.05982,-0.01386 l -0.08093,-2.16e-4 0,-3.103444 0,-3.103445 1.230695,0 c 0.676882,0 1.233796,0.005 1.237586,0.01115 0.0038,0.0061 0.01149,3.286917 0.01712,7.290631 l 0.01022,7.27948 -7.940272,0 -7.940271,0 0,-0.372976 z M 78.243267,50.99248 c 0.05551,-0.0011 0.0644,-0.0039 0.03755,-0.01192 -0.04236,-0.01265 -0.128246,-0.0026 -0.147783,0.01722 -0.0095,0.0097 -0.0057,0.01135 0.01171,0.0052 0.01418,-0.005 0.05851,-0.0097 0.09852,-0.01051 z m 0.211912,-0.0242 c 0.0039,-0.0063 -0.01313,-0.0086 -0.03787,-0.0051 -0.04339,0.0062 -0.04414,0.0054 -0.02108,-0.02046 0.02332,-0.02619 0.02155,-0.02674 -0.07037,-0.02185 -0.115871,0.0062 -0.133049,0.01639 -0.02979,0.01773 0.05319,6.89e-4 0.06773,0.0044 0.04809,0.01232 -0.02627,0.01058 -0.02581,0.01179 0.007,0.01821 0.0592,0.01157 0.09651,0.01127 0.103986,-8.2e-4 l 0,0 z"
     id="path3499"
     inkscape:connector-curvature="0" /><path
     style="fill:#ff0000"
     d="m 78.235958,50.92797 c 0.01016,-0.0041 0.0223,-0.0036 0.02698,0.0011 0.0047,0.0047 -0.0036,0.008 -0.01847,0.0074 -0.0164,-6.75e-4 -0.01973,-0.004 -0.0085,-0.0085 z"
     id="path3501"
     inkscape:connector-curvature="0" /><path
     style="fill:#ff0000"
     d="m 78.139148,50.993793 c 0.005,-0.0056 0.01288,-0.01002 0.01742,-0.0098 0.0045,2.55e-4 0.01832,-0.001 0.03064,-0.0028 0.01536,-0.0022 0.01927,-0.0018 0.01244,0.0013 -0.0076,0.0035 -0.0028,0.0049 0.0199,0.0057 0.02858,0.001 0.02804,0.0012 -0.01244,0.0046 -0.02326,0.0019 -0.05013,0.0052 -0.05971,0.0074 -0.01731,0.0038 -0.01736,0.0038 -0.0082,-0.0064 z"
     id="path3503"
     inkscape:connector-curvature="0" /><path
     style="fill:#ff0000"
     d="m 77.379161,53.778207 c -0.0028,-0.167805 -0.0065,-0.702934 -0.01614,-2.303941 l -0.0033,-0.546128 0.07258,0 c 0.04603,0 0.07377,-0.0019 0.07586,-0.0053 0.0018,-0.0029 0.0023,-0.0063 0.0011,-0.0075 -0.0012,-0.0012 -0.03391,-0.0037 -0.07265,-0.0054 l -0.07044,-0.0032 0,-1.049186 0,-1.049186 1.238518,0 1.238518,0 0.0029,0.08584 c 0.0016,0.04721 0.0041,1.207143 0.0055,2.577627 l 0.0026,2.49179 -1.211724,0 -1.211725,0 0.0027,-0.08335 c 0.0044,-0.135646 0.01207,-1.108288 0.01564,-1.985686 0.0018,-0.449648 0.0047,-0.818422 0.0065,-0.819498 0.0017,-0.0011 0.0232,-0.0046 0.04769,-0.0078 0.05849,-0.0076 0.0652,-0.01474 0.01387,-0.01474 -0.0629,0 -0.08604,0.0044 -0.08857,0.01686 -0.0062,0.03058 -0.01931,0.84569 -0.0274,1.704876 -0.01025,1.089213 -0.01153,1.189292 -0.01517,1.189292 -0.0021,0 -0.0051,-0.08341 -0.0068,-0.185361 z m 0.770843,-2.780702 c -0.0092,-0.0027 -0.01666,-0.0026 -0.01966,4.28e-4 -0.0031,0.0031 0.0021,0.0047 0.01481,0.0044 0.01942,-4.23e-4 0.01948,-4.8e-4 0.0048,-0.0048 l 0,0 z m 0.0484,-0.0032 c -0.0062,-0.0012 -0.01623,-0.0012 -0.02239,0 -0.0062,0.0012 -0.0011,0.0022 0.0112,0.0022 0.01232,0 0.01735,-9.7e-4 0.0112,-0.0022 z m 0.09579,-0.0064 c 0.0037,-0.006 -0.03607,-0.0062 -0.06469,-2.85e-4 -0.01713,0.0035 -0.01422,0.0042 0.02085,0.0047 0.02246,3.15e-4 0.04214,-0.0017 0.04384,-0.0044 l 0,0 z m -0.05452,-0.01388 c -0.0012,-0.0012 -0.01747,-4.77e-4 -0.03607,0.0017 -0.02711,0.0032 -0.03086,0.0046 -0.01889,0.007 0.01451,0.0029 0.05948,-0.0042 0.05496,-0.0087 z m 0.215108,-0.0032 c 0.0072,-0.0072 -0.0051,-0.0074 -0.03179,-6.01e-4 l -0.02928,0.0075 0.02914,-0.002 c 0.01603,-0.0011 0.03039,-0.0033 0.03193,-0.0048 z m -0.07102,-0.01838 c 0.006,-0.0025 -0.0019,-0.003 -0.01991,-0.0012 -0.01642,0.0017 -0.03173,0.0047 -0.03402,0.0069 -0.0052,0.0048 0.0405,5.2e-5 0.05393,-0.0056 z m 0.0062,-0.01272 c -0.0048,-0.0013 -0.01263,-0.0013 -0.01742,0 -0.0048,0.0013 -8.7e-4,0.0023 0.0087,0.0023 0.0096,0 0.0135,-0.001 0.0087,-0.0023 z m -0.07589,-0.0064 c -0.0219,-0.0019 -0.04541,-0.0017 -0.05225,3.24e-4 -0.0072,0.0021 0.0096,0.0036 0.03981,0.0034 l 0.05225,-3.23e-4 -0.03981,-0.0034 z m 0.09455,-0.01004 c -0.0037,-0.0059 -0.05647,-0.0061 -0.08459,-2.86e-4 -0.0156,0.0032 -0.0083,0.0042 0.03388,0.0047 0.03473,3.7e-4 0.0527,-0.0012 0.05071,-0.0044 l 0,0 z"
     id="path3505"
     inkscape:connector-curvature="0" /><path
     style="fill:#ff0000"
     d="m 78.258315,50.987302 c 0.007,-8.7e-4 0.01757,-8.52e-4 0.02344,4e-5 0.0059,8.91e-4 1.25e-4,0.0016 -0.01277,0.0016 -0.01289,-2.2e-5 -0.01769,-7.51e-4 -0.01067,-0.0016 z"
     id="path3507"
     inkscape:connector-curvature="0" /><path
     style="fill:#ff0000"
     d="m 78.275897,50.983519 c 0.0038,-9.9e-4 0.0091,-9.25e-4 0.01172,1.45e-4 0.0026,0.0011 -4.65e-4,0.0019 -0.0069,0.0018 -0.0064,-8e-5 -0.0086,-9.55e-4 -0.0048,-0.0019 z"
     id="path3509"
     inkscape:connector-curvature="0" /><path
     style="fill:#ff0000"
     d="m 77.374933,53.274312 c -0.0012,-0.02632 -0.0041,-0.37832 -0.0063,-0.782226 -0.0022,-0.403906 -0.0052,-0.921143 -0.0066,-1.149414 l -0.0025,-0.415039 0.06998,-6e-5 c 0.06812,-5.8e-5 0.08359,-0.0023 0.07806,-0.01122 -0.0018,-0.0028 -0.02073,-0.0043 -0.05464,-0.0043 -0.02858,0 -0.06011,-0.0011 -0.07008,-0.0025 l -0.01812,-0.0025 0,-0.815876 0,-0.815875 1.242187,0 1.242188,0 10e-7,0.678711 c 0,0.373291 0.0012,1.283838 0.0026,2.023437 l 0.0026,1.344727 -1.207825,0 -1.207824,0 0.0023,-0.149414 c 0.0034,-0.2235 0.0097,-1.358735 0.0098,-1.749024 3.2e-5,-0.187988 0.0014,-0.34375 0.0029,-0.346137 0.0016,-0.0024 0.01166,-0.0055 0.0224,-0.007 0.05448,-0.0073 0.07579,-0.01154 0.0739,-0.0146 -0.0048,-0.0078 -0.113267,-6.5e-4 -0.118462,0.0078 -0.0077,0.01243 -0.01959,0.653758 -0.02763,1.48886 -0.0022,0.224511 -0.005,0.489502 -0.0064,0.588867 l -0.0024,0.180664 -0.0089,0 c -0.0087,0 -0.009,-0.0013 -0.01117,-0.04785 z m 0.779796,-2.275048 c -0.0027,-0.0011 -0.0071,-0.0011 -0.0098,0 -0.0027,0.0011 -4.88e-4,0.002 0.0049,0.002 0.0054,0 0.0076,-8.87e-4 0.0049,-0.002 z m 0.03711,-0.004 c -0.0038,-9.83e-4 -0.0099,-9.83e-4 -0.01367,0 -0.0038,9.82e-4 -6.84e-4,0.0018 0.0068,0.0018 0.0075,0 0.0106,-8.04e-4 0.0068,-0.0018 z m 0.07606,-0.0037 c 0.01444,-0.0014 0.02541,-0.0038 0.02438,-0.0055 -0.0025,-0.004 -0.06523,3.9e-5 -0.06998,0.0045 -0.0044,0.0042 0.0088,0.0045 0.04559,9.77e-4 z m -0.03993,-0.01309 c 0.01318,-0.0042 -0.02442,-0.0042 -0.04102,0 -0.0096,0.0024 -0.0078,0.003 0.0098,0.0031 0.01182,4e-5 0.02588,-0.0013 0.03125,-0.0031 z m 0.22168,-0.0061 c 0.0027,-8.33e-4 0.0049,-0.0031 0.0049,-0.0051 0,-0.0037 -0.04538,0.0044 -0.04994,0.009 -0.0025,0.0025 0.03477,-7.19e-4 0.04506,-0.0039 z m -0.0791,-0.01716 0.01563,-0.0032 -0.01758,1.1e-5 c -0.0097,8e-6 -0.02285,0.0014 -0.0293,0.003 l -0.01172,0.003 0.01367,2.37e-4 c 0.0075,1.31e-4 0.0207,-0.0012 0.0293,-0.003 l 0,2e-6 z m 0.01863,-0.01451 c -0.0026,-0.0011 -0.0079,-0.0011 -0.01172,-1.44e-4 -0.0038,9.9e-4 -0.0016,0.0019 0.0048,0.0019 0.0064,8e-5 0.0096,-7.31e-4 0.0069,-0.0018 l 0,0 z m -0.0616,-0.0055 c -0.02138,-0.0044 -0.06898,-0.0042 -0.05859,2.24e-4 0.0043,0.0018 0.02275,0.0033 0.04102,0.0032 0.02778,-1.46e-4 0.03065,-7.03e-4 0.01758,-0.0034 l 0,0 z m 0.08008,-0.01149 c 0,-0.0046 -0.06752,-0.0046 -0.08203,0 -0.0062,0.002 0.0071,0.0033 0.03613,0.0035 0.02826,2.4e-4 0.0459,-0.0011 0.0459,-0.0035 z"
     id="path3511"
     inkscape:connector-curvature="0" /><path
     style="fill:#ff0000"
     d="m 77.374893,53.289937 c -0.002,-0.02889 -0.0044,-0.380876 -0.01285,-1.904048 l -0.0025,-0.457759 0.07259,-0.0012 c 0.03993,-6.74e-4 0.074,-0.0026 0.07573,-0.0044 0.0074,-0.0074 -0.01198,-0.01042 -0.06695,-0.01052 -0.03223,-6.2e-5 -0.06255,-0.0012 -0.06738,-0.0025 l -0.0088,-0.0024 0,-0.81595 0,-0.815951 1.242187,0 1.242188,0 0,0.528647 c 0,0.290756 0.0012,1.201303 0.0026,2.023437 l 0.0026,1.494791 -1.208019,0 -1.208018,0 0.0025,-0.180664 c 0.0035,-0.256262 0.0099,-1.371567 0.01,-1.745117 4.3e-5,-0.17295 0.0014,-0.316456 0.0029,-0.318903 0.0016,-0.0024 0.02306,-0.0074 0.04774,-0.01101 0.02468,-0.0036 0.04558,-0.0073 0.04646,-0.0082 8.75e-4,-8.75e-4 -0.0015,-0.0028 -0.0054,-0.0043 -0.0082,-0.0032 -0.105919,0.0036 -0.109917,0.0075 -0.0083,0.0083 -0.02039,0.652046 -0.02872,1.532043 -0.0022,0.232032 -0.0051,0.490869 -0.0064,0.575196 l -0.0024,0.15332 -0.009,0 c -0.0084,0 -0.0091,-0.0019 -0.01117,-0.03223 z m 0.896047,-2.299641 c 0.0213,-0.0029 0.02121,-0.003 -0.01051,-0.0035 -0.01775,-3.05e-4 -0.03307,0.0012 -0.03441,0.0034 -0.0028,0.0045 0.01317,0.0046 0.04492,1.63e-4 z m -0.04687,-0.01188 c 0.0083,-0.0027 0.0074,-0.0031 -0.0059,-0.0031 -0.0086,4e-5 -0.0209,0.0014 -0.02734,0.0031 -0.01052,0.0027 -0.0099,0.003 0.0059,0.0031 0.0097,4e-5 0.02197,-0.0013 0.02734,-0.0031 z m 0.226562,-0.0078 c 0.0045,-0.0029 0.0031,-0.0037 -0.0059,-0.0034 -0.0064,2.21e-4 -0.01699,0.0017 -0.02344,0.0034 -0.01069,0.0027 -0.01017,0.003 0.0059,0.0034 0.0097,2.21e-4 0.02022,-0.0013 0.02344,-0.0034 z m -0.08398,-0.0154 0.01563,-0.0032 -0.01367,1.1e-5 c -0.0075,8e-6 -0.01895,0.0014 -0.02539,0.003 -0.01068,0.0027 -0.01085,0.003 -0.002,0.0032 0.0054,1.31e-4 0.0168,-0.0012 0.02539,-0.003 l 0,2e-6 z m 0.02043,-0.0143 c -0.0013,-0.0013 -0.0047,-0.0014 -0.0075,-3.09e-4 -0.0031,0.0012 -0.0022,0.0022 0.0024,0.0024 0.0041,1.7e-4 0.0064,-7.53e-4 0.0051,-0.0021 l 0,0 z m -0.06535,-0.0055 c -0.0054,-0.0017 -0.02031,-0.0031 -0.0332,-0.0031 -0.01726,0 -0.02086,8.24e-4 -0.01367,0.0031 0.0054,0.0017 0.02031,0.0031 0.0332,0.0031 0.01726,0 0.02087,-8.24e-4 0.01367,-0.0031 z m 0.08203,-0.01172 c 0,-0.0048 -0.06113,-0.0048 -0.07227,0 -0.0051,0.0022 0.0062,0.0035 0.03223,0.0036 0.02427,1.67e-4 0.04004,-0.0013 0.04004,-0.0036 z"
     id="path3513"
     inkscape:connector-curvature="0" /><path
     style="fill:#ff0000"
     d="m 77.371128,52.965719 c -0.0014,-0.196045 -0.0043,-0.664942 -0.0064,-1.041993 -0.0021,-0.37705 -0.0046,-0.75523 -0.0055,-0.840398 l -0.0017,-0.154851 0.07178,-0.0014 c 0.05038,-9.98e-4 0.07323,-0.0029 0.07664,-0.0063 0.0027,-0.0027 0.0041,-0.0051 0.0031,-0.0054 -9.67e-4,-3.14e-4 -0.0334,-0.0016 -0.07207,-0.0029 l -0.07031,-0.0024 -9.86e-4,-0.817383 -9.85e-4,-0.817383 1.241547,0 1.241548,0 0.0026,1.22168 c 0.0014,0.671923 0.0026,1.58247 0.0026,2.023437 l 0,0.801758 -1.207648,0 -1.207649,0 0.0026,-0.208008 c 0.0014,-0.114404 0.0044,-0.555176 0.0067,-0.979492 0.0023,-0.424316 0.0045,-0.836412 0.0049,-0.915768 l 7.7e-4,-0.144284 0.01172,-0.0027 c 0.0064,-0.0015 0.02737,-0.0049 0.04649,-0.0076 0.02355,-0.0033 0.03282,-0.006 0.02873,-0.0082 -0.0079,-0.0044 -0.09958,0.0018 -0.104853,0.007 -0.01011,0.01011 -0.02182,0.622266 -0.03088,1.614506 -0.0022,0.245996 -0.0051,0.49165 -0.0064,0.545898 l -0.0023,0.09863 -0.01067,0 -0.01067,0 -0.0026,-0.356445 z m 0.909578,-1.977527 c 0.0021,-7.42e-4 -0.007,-0.0015 -0.02028,-0.0017 -0.0133,-1.7e-4 -0.02508,0.0011 -0.02618,0.0029 -0.0018,0.003 0.03732,0.0019 0.04646,-0.0013 z m -0.06055,-0.0098 0.0098,-0.0031 -0.0098,7.3e-5 c -0.0054,4e-5 -0.01504,0.0014 -0.02148,0.0031 l -0.01172,0.003 0.01172,7.2e-5 c 0.0064,4e-5 0.01611,-0.0013 0.02148,-0.0031 l 0,0 z m 0.228515,-0.0078 c 0.0071,-0.0031 0.0069,-0.0033 -0.002,-0.0032 -0.0054,6.3e-5 -0.01416,0.0015 -0.01953,0.0032 -0.0095,0.003 -0.0095,0.0031 0.002,0.0032 0.0064,6.3e-5 0.01523,-0.0014 0.01953,-0.0032 z m -0.09863,-0.01431 c -0.0027,-0.0011 -0.0071,-0.0011 -0.0098,0 -0.0027,0.0011 -4.88e-4,0.002 0.0049,0.002 0.0054,0 0.0076,-8.87e-4 0.0049,-0.002 z m -0.05269,-0.02354 c -0.0037,-9.77e-4 -0.01077,-0.001 -0.01563,-7.9e-5 -0.0049,9.35e-4 -0.0018,0.0017 0.0068,0.0018 0.0086,4.3e-5 0.01257,-7.21e-4 0.0088,-0.0017 l 0,0 z m 0.09663,-0.009 c 0.0053,-0.0023 -0.0015,-0.0034 -0.02148,-0.0036 -0.01611,-1.18e-4 -0.03193,0.0015 -0.03516,0.0036 -0.0075,0.0048 0.04536,0.0048 0.05664,0 z"
     id="path3515"
     inkscape:connector-curvature="0" /><path
     style="fill:#ff0000"
     d="m 77.372514,53.245016 c 1.8e-5,-0.117348 -0.01113,-1.918378 -0.01318,-2.13039 l -0.0018,-0.186053 0.07192,-0.0016 c 0.04897,-0.0011 0.07342,-0.0031 0.07663,-0.0063 0.0026,-0.0026 0.0039,-0.0049 0.003,-0.0052 -9.67e-4,-2.68e-4 -0.0334,-0.0016 -0.07207,-0.0029 l -0.07031,-0.0024 -9.86e-4,-0.817383 -9.85e-4,-0.817383 1.241547,0 1.241548,0 0.0026,1.21354 c 0.0014,0.667447 0.0026,1.577994 0.0026,2.023438 l 0,0.809897 -1.20753,0 -1.20753,0 0.0026,-0.254883 c 0.0038,-0.370123 0.01,-1.426953 0.01002,-1.730238 2.9e-5,-0.143843 0.0016,-0.261454 0.0035,-0.262616 0.0028,-0.0017 0.0753,-0.01369 0.08544,-0.0141 0.0016,-6.5e-5 3.19e-4,-0.0016 -0.0029,-0.0035 -0.0073,-0.0042 -0.09682,0.0012 -0.101755,0.0061 -0.01004,0.01004 -0.02178,0.621066 -0.031,1.614651 -0.0022,0.237402 -0.0051,0.479541 -0.0064,0.538086 l -0.0024,0.106445 -0.01127,0 -0.01127,0 1.2e-5,-0.07715 z m 0.897519,-2.257674 c -0.0059,-8.92e-4 -0.01642,-9.1e-4 -0.02344,-4e-5 -0.007,8.69e-4 -0.0022,0.0016 0.01067,0.0016 0.01289,2.4e-5 0.01864,-6.89e-4 0.01277,-0.0016 z m -0.05183,-0.0089 c 0.0078,-0.0034 0.0078,-0.0034 0,-0.0032 -0.0043,6.3e-5 -0.01221,0.0015 -0.01758,0.0032 l -0.0098,0.0031 0.0098,1.15e-4 c 0.0054,6.4e-5 0.01328,-0.0014 0.01758,-0.0032 z m 0.228515,-0.0078 c 0.0048,-0.0031 0.0045,-0.0037 -0.002,-0.0035 -0.0043,1.82e-4 -0.01221,0.0017 -0.01758,0.0035 -0.0096,0.0031 -0.0095,0.0031 0.002,0.0035 0.0064,1.81e-4 0.01436,-0.0014 0.01758,-0.0035 z m -0.155273,-0.03774 c -0.0027,-0.0011 -0.0071,-0.0011 -0.0098,0 -0.0027,0.0011 -4.88e-4,0.002 0.0049,0.002 0.0054,0 0.0076,-8.86e-4 0.0049,-0.002 z m 0.100586,-0.0091 c 0.0041,-0.0027 -0.0017,-0.0038 -0.01953,-0.0038 -0.01396,0 -0.02803,0.0017 -0.03125,0.0038 -0.0041,0.0027 0.0017,0.0038 0.01953,0.0038 0.01396,0 0.02803,-0.0017 0.03125,-0.0038 z"
     id="path3517"
     inkscape:connector-curvature="0" /><path
     style="fill:#ff0000"
     d="m 77.372511,53.2665 c 1.9e-5,-0.119756 -0.01144,-1.927169 -0.01349,-2.126372 l -0.0022,-0.211332 0.07267,-0.0021 c 0.04476,-0.0013 0.07432,-0.0038 0.07696,-0.0064 0.0049,-0.0049 0.01044,-0.0044 -0.07735,-0.0078 l -0.0625,-0.0024 -9.86e-4,-0.817383 -9.85e-4,-0.817383 1.241548,0 1.241548,0 0.0026,1.061196 c 0.0014,0.583658 0.0026,1.494205 0.0026,2.023438 l 0,0.962241 -1.207663,0 -1.207664,0 0.0024,-0.211526 c 0.0013,-0.116339 0.0045,-0.621271 0.0071,-1.12207 0.0025,-0.5008 0.0057,-0.911799 0.007,-0.913332 0.0013,-0.0015 0.02074,-0.0055 0.04316,-0.0089 0.02242,-0.0034 0.04158,-0.0069 0.04259,-0.008 0.0027,-0.0027 -0.06587,-0.0022 -0.08671,6.37e-4 -0.01164,0.0016 -0.01872,0.0047 -0.01999,0.0088 -0.0086,0.0275 -0.02074,0.707001 -0.02943,1.643037 -0.0022,0.236328 -0.0051,0.470556 -0.0064,0.520508 l -0.0024,0.09082 -0.01128,0 -0.01128,0 9e-6,-0.05566 z m 0.88964,-2.27906 c -0.0038,-9.82e-4 -0.0099,-9.82e-4 -0.01367,0 -0.0038,9.83e-4 -6.84e-4,0.0018 0.0068,0.0018 0.0075,0 0.0106,-8.03e-4 0.0068,-0.0018 z m -0.05477,-0.0075 c -0.0013,-0.0013 -0.0047,-0.0014 -0.0075,-3.08e-4 -0.0031,0.0012 -0.0022,0.0022 0.0024,0.0024 0.0041,1.7e-4 0.0064,-7.54e-4 0.0051,-0.0021 l 0,0 z m 0.239339,-0.0094 c 0.0052,-0.0034 0.0052,-0.0038 0,-0.0035 -0.0032,1.82e-4 -0.01025,0.0017 -0.01563,0.0035 l -0.0098,0.0031 0.0098,3.3e-4 c 0.0054,1.81e-4 0.0124,-0.0014 0.01563,-0.0035 l 0,-10e-7 z m -0.05859,-0.04687 c 0.0042,-0.0027 -3.28e-4,-0.0038 -0.01563,-0.0038 -0.01182,0 -0.02412,0.0017 -0.02734,0.0038 -0.0042,0.0027 3.29e-4,0.0038 0.01563,0.0038 0.01182,0 0.02412,-0.0017 0.02734,-0.0038 z"
     id="path3519"
     inkscape:connector-curvature="0" /><path
     style="fill:#ff0000"
     d="m 77.370986,52.996969 c -0.0014,-0.178858 -0.0042,-0.617871 -0.0063,-0.975586 -0.002,-0.357715 -0.0048,-0.749865 -0.0061,-0.871445 l -0.0024,-0.221055 0.07074,-0.0025 c 0.03891,-0.0013 0.07349,-0.004 0.07686,-0.0059 0.0076,-0.0042 -0.04203,-0.0085 -0.09914,-0.0085 l -0.04004,-2.3e-5 0,-0.81836 0,-0.818359 1.241539,0 1.241539,0 0.0026,0.93229 c 0.0014,0.512759 0.0026,1.423306 0.0026,2.023437 l 0,1.091148 -1.207661,0 -1.207661,0 0.0026,-0.268555 c 0.0014,-0.147705 0.0044,-0.616601 0.0067,-1.041992 0.0023,-0.425391 0.0045,-0.810351 0.0049,-0.855469 l 7.92e-4,-0.08203 0.02734,-0.0049 c 0.05944,-0.01072 0.06098,-0.01236 0.01045,-0.01106 -0.03459,8.84e-4 -0.04965,0.0028 -0.05349,0.0067 -0.01181,0.01199 -0.02251,0.55229 -0.03306,1.669492 -0.0022,0.232032 -0.0051,0.459229 -0.0064,0.504883 l -0.0024,0.08301 -0.01077,0 -0.01077,0 -0.0026,-0.325195 z m 1.073782,-2.026368 c 0.01,-0.0043 -3.16e-4,-0.0043 -0.01367,0 -0.0078,0.0025 -0.0082,0.0031 -0.002,0.0032 0.0043,6.3e-5 0.01133,-0.0014 0.01563,-0.0032 z m -0.06055,-0.04687 c 0.0043,-0.0028 0.0011,-0.0038 -0.01172,-0.0038 -0.0097,0 -0.02021,0.0017 -0.02344,0.0038 -0.0043,0.0028 -0.0011,0.0038 0.01172,0.0038 0.0097,0 0.02022,-0.0017 0.02344,-0.0038 z"
     id="path3521"
     inkscape:connector-curvature="0" /><path
     style="fill:#ff0000"
     d="m 77.370923,53.0165 c -0.0014,-0.168115 -0.0042,-0.593067 -0.0062,-0.944336 -0.002,-0.35127 -0.0048,-0.752215 -0.0062,-0.89099 l -0.0025,-0.252318 0.07173,-0.0028 c 0.03945,-0.0015 0.07313,-0.0042 0.07484,-0.0059 0.0038,-0.0038 -0.04873,-0.0081 -0.0998,-0.0082 l -0.03809,-2.3e-5 0,-0.81836 0,-0.818359 1.24154,0 1.241539,0 0.0026,0.826821 c 0.0014,0.454751 0.0026,1.365298 0.0026,2.023437 l 0,1.196617 -1.207673,0 -1.207673,0 0.0025,-0.282227 c 0.0014,-0.155224 0.0044,-0.659277 0.0068,-1.120117 0.0024,-0.46084 0.0049,-0.839908 0.0057,-0.842374 7.58e-4,-0.0025 0.01425,-0.0065 0.02997,-0.009 0.04182,-0.0066 0.04983,-0.0114 0.01883,-0.01131 -0.01396,4.3e-5 -0.03406,0.0012 -0.04465,0.0027 -0.01705,0.0023 -0.01961,0.0039 -0.02228,0.01391 -0.0096,0.03601 -0.02093,0.660091 -0.03068,1.687895 -0.0022,0.229883 -0.005,0.450049 -0.0063,0.489258 l -0.0024,0.07129 -0.01082,0 -0.01082,0 -0.0025,-0.305664 z m 1.066928,-2.044352 c -0.0013,-0.0013 -0.0047,-0.0014 -0.0075,-3.09e-4 -0.0031,0.0012 -0.0022,0.0022 0.0024,0.0024 0.0041,1.7e-4 0.0064,-7.53e-4 0.0051,-0.0021 l 0,0 z m -0.07121,-0.04842 c 0.0031,-0.005 -0.006,-0.005 -0.01367,0 -0.0048,0.0031 -0.0043,0.0038 0.0027,0.0038 0.0047,3.1e-5 0.0096,-0.0017 0.01097,-0.0038 z"
     id="path3523"
     inkscape:connector-curvature="0" /><path
     style="fill:#ff0000"
     d="m 77.372475,53.301656 c -1.21e-4,-0.09064 -0.01184,-1.839141 -0.01389,-2.073642 l -0.0026,-0.299228 0.0698,-0.0028 c 0.03839,-0.0015 0.0712,-0.0042 0.07291,-0.0058 0.0036,-0.0035 -0.05397,-0.0081 -0.101369,-0.0081 l -0.0326,0 0,-0.81836 0,-0.818359 1.24154,0 1.24154,0 0.0026,0.733071 c 0.0014,0.403188 0.0026,1.313735 0.0026,2.023437 l 0,1.290367 -1.207669,0 -1.20767,0 0.0026,-0.323242 c 0.0014,-0.177783 0.0045,-0.682715 0.0069,-1.122071 0.0024,-0.439355 0.0056,-0.800219 0.0072,-0.80192 0.0016,-0.0017 0.01502,-0.005 0.02986,-0.0072 0.03622,-0.0056 0.04484,-0.01096 0.01722,-0.01074 -0.02482,1.92e-4 -0.0613,0.0049 -0.06475,0.0084 -0.01049,0.01049 -0.02042,0.507717 -0.03086,1.543969 -0.0032,0.322266 -0.007,0.614502 -0.0083,0.649414 l -0.0024,0.06348 -0.0113,0 c -0.01103,0 -0.0113,-5e-4 -0.01133,-0.02051 z m 0.994168,-2.37793 c 0.0031,-0.005 -0.006,-0.005 -0.01367,0 -0.0048,0.0031 -0.0043,0.0038 0.0027,0.0038 0.0047,3.1e-5 0.0096,-0.0017 0.01097,-0.0038 z"
     id="path3525"
     inkscape:connector-curvature="0" /><path
     style="fill:#ff0000"
     d="m 77.372467,53.309469 c -2.38e-4,-0.08482 -0.01196,-1.810767 -0.01395,-2.054191 l -0.0027,-0.326652 0.06891,-0.0029 c 0.0379,-0.0016 0.06972,-0.0042 0.0707,-0.0058 0.002,-0.0032 -0.0585,-0.0079 -0.102441,-0.008 l -0.02832,-2e-5 0,-0.81836 0,-0.818359 1.24154,0 1.241541,0 0.0026,0.647461 c 0.0014,0.356103 0.0026,1.26665 0.0026,2.023437 l 10e-7,1.375977 -1.208614,0 -1.208614,0 0.0016,-0.02246 c 8.64e-4,-0.01235 0.0033,-0.326562 0.0054,-0.698242 0.0021,-0.37168 0.005,-0.867087 0.0065,-1.100904 l 0.0026,-0.425123 0.0085,-0.0032 c 0.0047,-0.0018 0.01848,-0.0045 0.03072,-0.006 0.01224,-0.0015 0.02337,-0.0046 0.02473,-0.0068 0.0024,-0.0039 -0.06372,-7.68e-4 -0.07498,0.0036 -0.0027,0.001 -0.0059,0.01099 -0.0072,0.02212 -0.0091,0.07787 -0.01907,0.660561 -0.02966,1.729234 -0.0022,0.218067 -0.005,0.421534 -0.0063,0.452149 l -0.0024,0.05566 -0.01131,0 c -0.01015,0 -0.01132,-0.0013 -0.01135,-0.0127 z m 0.992223,-2.38562 c 0,-0.0021 -0.0026,-0.0028 -0.0059,-0.0015 -0.0032,0.0012 -0.0059,0.0029 -0.0059,0.0038 0,8.44e-4 0.0026,0.0015 0.0059,0.0015 0.0032,0 0.0059,-0.0017 0.0059,-0.0038 z"
     id="path3527"
     inkscape:connector-curvature="0" /><path
     style="fill:#ff0000"
     d="m 77.372458,53.319234 c -2.4e-5,-0.0016 -0.0026,-0.381738 -0.0057,-0.844726 -0.0031,-0.462989 -0.0068,-1.000242 -0.0083,-1.193896 l -0.0027,-0.352099 0.06453,-0.0028 c 0.03549,-0.0016 0.0666,-0.0041 0.06914,-0.0057 0.0049,-0.0031 -0.05514,-0.0079 -0.09839,-0.0079 l -0.02637,-2e-5 0,-0.81836 0,-0.818359 1.241541,0 1.241541,0 0.0026,0.586586 c 0.0014,0.322622 0.0026,1.233169 0.0026,2.023437 l 0,1.436852 -1.208951,0 -1.208952,0 0.002,-0.0459 c 0.0011,-0.02524 0.0037,-0.351758 0.0058,-0.725586 0.0021,-0.373829 0.005,-0.858685 0.0064,-1.07746 l 0.0026,-0.397773 0.0082,-0.0031 c 0.0045,-0.0017 0.01745,-0.0044 0.02873,-0.0059 0.01128,-0.0015 0.02161,-0.0046 0.02297,-0.0068 0.0029,-0.0047 -0.05938,-1.98e-4 -0.06938,0.0051 -0.0041,0.0022 -0.0072,0.01072 -0.0088,0.02397 -0.0089,0.07633 -0.01846,0.642245 -0.02972,1.751087 -0.0022,0.212695 -0.005,0.408252 -0.0063,0.43457 l -0.0024,0.04785 -0.01132,0 c -0.0062,0 -0.01134,-0.0013 -0.01137,-0.0029 z"
     id="path3529"
     inkscape:connector-curvature="0" /><path
     style="fill:#ff0000"
     d="m 77.430364,50.913246 c 0.0028,-0.0011 0.0062,-9.9e-4 0.0075,3.08e-4 0.0013,0.0013 -0.001,0.0022 -0.0051,0.0021 -0.0046,-1.88e-4 -0.0055,-0.0011 -0.0024,-0.0024 z"
     id="path3531"
     inkscape:connector-curvature="0" /><path
     style="fill:#ff0000"
     d="m 77.357652,50.098531 c 6.02e-4,-0.641044 0.0013,-0.753278 0.0033,-0.50293 0.0014,0.177247 0.0028,0.545694 0.0031,0.818772 l 5.63e-4,0.496505 0.02637,0.0025 c 0.0145,0.0014 0.03955,0.0027 0.05566,0.0029 0.04927,7.01e-4 0.01568,0.0066 -0.04004,0.0071 l -0.04981,3.89e-4 7.75e-4,-0.825195 z"
     id="path3533"
     inkscape:connector-curvature="0" /><path
     style="fill:#ff0000"
     d="m 77.371061,53.153219 c -0.0013,-0.09292 -0.0042,-0.467774 -0.0064,-0.833008 -0.0022,-0.365235 -0.0051,-0.827887 -0.0065,-1.028118 l -0.0026,-0.364055 0.02505,-0.0014 0.02505,-0.0014 -0.02441,-7.53e-4 -0.02442,-7.53e-4 8.97e-4,-0.430664 c 5.01e-4,-0.241042 0.0018,-0.373906 0.003,-0.301757 0.0012,0.0709 0.0025,-0.106202 0.003,-0.393555 l 8.96e-4,-0.522461 1.241542,0 1.241542,0 0.0026,0.469397 c 0.0014,0.258169 0.0026,1.168716 0.0026,2.023438 l 0,1.55404 -1.209206,0 -1.209207,0 0.0023,-0.09082 c 0.0012,-0.04995 0.0039,-0.400196 0.006,-0.778321 0.0021,-0.378125 0.0049,-0.843375 0.0063,-1.033888 l 0.0025,-0.346389 0.0083,-0.002 c 0.0045,-0.0011 0.01661,-0.0032 0.02682,-0.0046 0.02998,-0.0043 0.02127,-0.008 -0.01303,-0.0055 -0.01972,0.0014 -0.03278,0.0043 -0.03476,0.0075 -0.01268,0.02052 -0.02012,0.404589 -0.03516,1.814554 -0.0022,0.201953 -0.005,0.383447 -0.0063,0.40332 l -0.0023,0.03613 -0.01089,0 -0.01089,0 -0.0024,-0.168945 z m 0.110816,-2.233544 c 0.004,-0.0027 -0.0039,-0.0031 -0.02539,-0.0014 -0.01719,0.0014 -0.03198,0.0032 -0.03288,0.004 -0.004,0.0035 0.05302,8.98e-4 0.05827,-0.0026 z m -0.06341,-0.0066 c -0.0059,-8.91e-4 -0.01642,-9.09e-4 -0.02344,-4e-5 -0.007,8.69e-4 -0.0022,0.0016 0.01067,0.0016 0.01289,2.3e-5 0.01864,-6.9e-4 0.01277,-0.0016 z"
     id="path3535"
     inkscape:connector-curvature="0" /><path
     style="fill:#ff0000"
     d="m 77.371024,53.145406 c -0.0013,-0.09722 -0.0042,-0.467676 -0.0063,-0.823242 -0.0022,-0.355566 -0.0051,-0.814693 -0.0065,-1.020282 l -0.0026,-0.373797 0.02114,-0.0015 0.02114,-0.0015 -0.0206,-7.23e-4 -0.0206,-7.23e-4 0.002,-0.375976 c 0.0011,-0.206787 0.003,-0.577686 0.0041,-0.824219 l 0.002,-0.448242 1.241446,0 1.241447,0 0.0026,0.47168 c 0.0014,0.259423 0.0026,1.16997 0.0026,2.023437 l 2e-6,1.551758 -1.209263,0 -1.209264,0 0.0023,-0.100586 c 0.0013,-0.05532 0.004,-0.403809 0.0061,-0.774414 0.0021,-0.370606 0.0049,-0.831557 0.0063,-1.024336 l 0.0026,-0.350509 0.01412,-0.0025 c 0.03846,-0.0067 0.04118,-0.0092 0.0089,-0.008 -0.02139,8e-4 -0.03366,0.003 -0.03572,0.0063 -0.01259,0.02038 -0.01947,0.375718 -0.03514,1.814531 -0.0022,0.197656 -0.005,0.377392 -0.0063,0.399414 l -0.0024,0.04004 -0.01088,0 -0.01088,0 -0.0024,-0.176758 z M 77.477971,50.9197 c 0.004,-0.0027 -0.0027,-0.0031 -0.02148,-0.0014 -0.01504,0.0014 -0.02808,0.0032 -0.02897,0.004 -0.0039,0.0034 0.0452,8.97e-4 0.05045,-0.0026 z m -0.06348,-0.0065 c -0.0038,-9.82e-4 -0.0099,-9.82e-4 -0.01367,0 -0.0038,9.83e-4 -6.84e-4,0.0018 0.0068,0.0018 0.0075,0 0.0106,-8.04e-4 0.0068,-0.0018 z"
     id="path3537"
     inkscape:connector-curvature="0" /><path
     style="fill:#ff0000"
     d="m 77.371003,53.17275 c -0.0025,-0.153298 -0.01431,-1.931231 -0.01419,-2.132577 l 6.4e-5,-0.112069 0.01465,-0.0015 0.01465,-0.0015 -0.01519,-6.57e-4 -0.01519,-6.57e-4 0.0025,-0.467773 c 0.0014,-0.257275 0.0036,-0.628174 0.005,-0.824219 l 0.0025,-0.356445 1.241002,0 1.241001,0 0.0026,0.418945 c 0.0014,0.23042 0.0026,1.140967 0.0026,2.023438 l 2e-6,1.604492 -1.209334,0 -1.209335,0 0.0024,-0.129883 c 0.0013,-0.07144 0.0041,-0.431348 0.0061,-0.799805 0.002,-0.368457 0.0049,-0.816155 0.0063,-0.994885 l 0.0025,-0.324963 0.02392,-0.0059 0.02392,-0.0059 -0.02711,0.0014 c -0.01923,0.001 -0.02845,0.0033 -0.03173,0.0077 -0.0025,0.0035 -0.0057,0.01991 -0.0071,0.03652 -0.0073,0.08916 -0.01513,0.512995 -0.02381,1.289975 -0.0085,0.765411 -0.0098,0.858465 -0.01225,0.893554 -0.0022,0.03214 -0.0023,0.03223 -0.01314,0.03223 l -0.01091,0 -0.0024,-0.149414 z m 0.102986,-2.2528 c 0.0038,-0.0024 -0.0024,-0.0029 -0.01758,-0.0014 -0.01285,0.0013 -0.02409,0.0029 -0.02499,0.0037 -0.0037,0.0033 0.03728,9.8e-4 0.04257,-0.0024 z"
     id="path3539"
     inkscape:connector-curvature="0" /><path
     style="fill:#ff0000"
     d="m 77.371013,53.180562 c -0.0022,-0.130461 -0.0063,-0.707098 -0.01282,-1.814132 l -0.0026,-0.438156 0.01138,-0.0017 0.01138,-0.0017 -0.01136,-5.85e-4 -0.01136,-5.86e-4 0.0026,-0.506835 c 0.0014,-0.27876 0.0037,-0.649659 0.0051,-0.824219 l 0.0026,-0.317383 1.24093,0 1.24093,0 0.0026,0.387365 c 0.0014,0.213051 0.0026,1.123598 0.0026,2.023438 l 0,1.636072 -1.209387,0 -1.209388,0 0.0025,-0.15332 c 0.0014,-0.08433 0.0041,-0.449512 0.0062,-0.811524 0.002,-0.362012 0.0048,-0.799187 0.0062,-0.9715 l 0.0025,-0.313298 0.02199,-0.0046 c 0.02656,-0.0056 0.0201,-0.0093 -0.0097,-0.0056 -0.02521,0.0031 -0.02657,0.0053 -0.03029,0.04894 -0.0064,0.07487 -0.01457,0.499061 -0.02196,1.138672 -0.0022,0.186914 -0.0057,0.491016 -0.0078,0.675782 -0.0021,0.184765 -0.005,0.34956 -0.0063,0.366211 -0.0023,0.02993 -0.0025,0.03027 -0.01323,0.03027 l -0.01086,0 -0.0024,-0.141602 z m 0.0884,-2.259592 c -0.0048,-9.31e-4 -0.01274,-9.31e-4 -0.01758,0 -0.0048,9.31e-4 -8.78e-4,0.0017 0.0088,0.0017 0.0097,0 0.01362,-7.62e-4 0.0088,-0.0017 z"
     id="path3541"
     inkscape:connector-curvature="0" /><path
     style="fill:#ff0000"
     d="m 77.401389,53.184469 c 0.0014,-0.07573 0.0052,-0.364453 0.0083,-0.641602 0.0099,-0.878604 0.01817,-1.339704 0.02545,-1.425781 0.004,-0.04726 0.0072,-0.05311 0.02893,-0.05227 l 0.01195,4.62e-4 -0.01172,0.0025 -0.01172,0.0025 -0.0024,0.09763 c -0.0013,0.05369 -0.0036,0.311199 -0.005,0.572234 -0.0044,0.828342 -0.01008,1.540318 -0.01241,1.561523 l -0.0023,0.02051 -0.01587,0 -0.01587,0 0.0026,-0.137695 z"
     id="path3543"
     inkscape:connector-curvature="0" /><path
     style="fill:#ff0000"
     d="m 77.370984,53.192281 c -0.0024,-0.126344 -0.0075,-0.853177 -0.01279,-1.798419 -0.0025,-0.456224 -0.0024,-0.465449 0.0049,-0.46732 0.0074,-0.0019 0.0074,-0.0019 10e-7,-0.0024 -0.0073,-4.45e-4 -0.0074,-0.01069 -0.0049,-0.554164 0.0014,-0.304541 0.0037,-0.67544 0.0052,-0.824219 l 0.0026,-0.270508 1.240912,0 1.240912,0 0.0026,0.342773 c 0.0014,0.188526 0.0026,1.099073 0.0026,2.023438 l 2e-6,1.680664 -1.208882,0 -1.208883,0 -0.0012,-0.05957 -0.0012,-0.05957 -8.67e-4,0.05957 -8.67e-4,0.05957 -0.01538,0 c -0.01442,0 -0.01548,-7.89e-4 -0.01695,-0.0127 l -0.0016,-0.0127 -6.25e-4,0.0127 c -5.54e-4,0.01124 -0.0019,0.0127 -0.01189,0.0127 l -0.01127,0 -0.0024,-0.129883 z m 0.03177,-0.04687 c -7.23e-4,-0.01772 -0.0013,-0.0032 -0.0013,0.03223 0,0.03545 5.93e-4,0.04995 0.0013,0.03223 7.24e-4,-0.01772 7.24e-4,-0.04673 0,-0.06445 z m 0.03518,-0.271218 c -6.2e-4,-0.04902 -0.0011,-0.01003 -0.0011,0.08665 -1e-6,0.09668 5.06e-4,0.13679 0.0011,0.08913 6.21e-4,-0.04766 6.21e-4,-0.126758 10e-7,-0.175782 z m -0.03126,-0.0337 c -6.75e-4,-0.02619 -0.0012,-0.0037 -0.0012,0.05003 2e-6,0.05371 5.55e-4,0.07514 0.0012,0.04762 6.72e-4,-0.02752 6.7e-4,-0.07146 -4e-6,-0.09766 l 0,0 z m 0.0039,-0.337663 c -6.57e-4,-0.03169 -0.0012,-0.0058 -0.0012,0.05762 0,0.06338 5.37e-4,0.08931 0.0012,0.05762 6.57e-4,-0.03169 6.57e-4,-0.08355 0,-0.115234 z m 0.03126,-0.185273 c -6.1e-4,-0.05655 -0.0011,-0.01141 -0.0011,0.100312 0,0.111719 4.99e-4,0.157985 0.0011,0.102813 6.11e-4,-0.05517 6.11e-4,-0.146578 10e-7,-0.203125 z M 77.414485,52.1686 c -6.52e-4,-0.03263 -0.0012,-0.0048 -0.0012,0.06177 2e-6,0.0666 5.36e-4,0.0933 0.0012,0.05933 6.51e-4,-0.03397 6.5e-4,-0.08846 -3e-6,-0.121094 z m 0.0039,-0.302252 c -6.57e-4,-0.03182 -0.0012,-0.0069 -0.0012,0.05542 -1e-6,0.0623 5.36e-4,0.08834 0.0012,0.05786 6.59e-4,-0.03048 6.6e-4,-0.08146 3e-6,-0.113281 z m 0.02735,-0.181605 c -6.1e-4,-0.05655 -0.0011,-0.01141 -0.0011,0.100312 0,0.111718 4.99e-4,0.157984 0.0011,0.102813 6.11e-4,-0.05517 6.12e-4,-0.146578 10e-7,-0.203125 z m -0.02344,-0.07036 c -6.69e-4,-0.02859 -0.0012,-0.0063 -0.0012,0.04957 -2e-6,0.05586 5.45e-4,0.07925 0.0012,0.05199 6.7e-4,-0.02727 6.72e-4,-0.07297 3e-6,-0.101562 l 10e-7,0 z m 0.0039,-0.213121 c -7.03e-4,-0.02095 -0.0013,-0.0038 -0.0013,0.03809 0,0.04189 5.74e-4,0.05903 0.0013,0.03809 7.02e-4,-0.02095 7.02e-4,-0.05522 0,-0.07617 z m 0.02344,-0.187288 c -6.92e-4,-0.02321 -0.0013,-0.0053 -0.0013,0.03983 -4e-6,0.04512 5.63e-4,0.06411 0.0013,0.0422 6.95e-4,-0.0219 6.98e-4,-0.05882 6e-6,-0.08203 l 0,0 z m -0.01954,0.02731 c -7.34e-4,-0.01675 -0.0013,-0.0041 -0.0013,0.02814 -5e-6,0.03223 5.95e-4,0.04593 0.0013,0.03045 7.39e-4,-0.01548 7.44e-4,-0.04185 1e-5,-0.05859 l 0,0 z m 0.0039,-0.105647 c -8.04e-4,-0.01021 -0.0015,-0.0019 -0.0015,0.01855 0,0.02041 6.59e-4,0.02876 0.0015,0.01855 8.05e-4,-0.0102 8.05e-4,-0.0269 0,-0.03711 z m 0.01042,-0.06244 c 0.0013,-0.0013 0.0085,-0.003 0.01596,-0.0038 0.0075,-7.68e-4 0.01758,-0.0031 0.02245,-0.0053 0.0067,-0.0029 0.0039,-0.0034 -0.01171,-0.0017 -0.01131,0.0012 -0.023,0.0031 -0.02598,0.0043 -0.0068,0.0026 -0.01012,0.01462 -0.0096,0.03475 4.06e-4,0.01461 6.29e-4,0.01428 0.0035,-0.0051 0.0017,-0.01142 0.0041,-0.02182 0.0054,-0.02312 z m 0.01113,-0.152062 c -0.0027,-0.0011 -0.0071,-0.0011 -0.0098,0 -0.0027,0.0011 -4.89e-4,0.002 0.0049,0.002 0.0054,0 0.0076,-8.87e-4 0.0049,-0.002 z"
     id="path3545"
     inkscape:connector-curvature="0" /><path
     style="fill:#ff0000"
     d="m 77.37096,53.204 c -0.0025,-0.121519 -0.0082,-0.912976 -0.01276,-1.783203 -0.0022,-0.423664 -0.0018,-0.493173 0.0029,-0.493224 0.0048,-5.2e-5 0.0048,-5.45e-4 -3e-6,-0.0036 -0.0047,-0.003 -0.0052,-0.08751 -0.0029,-0.59662 0.0014,-0.326217 0.0038,-0.696393 0.0052,-0.822614 l 0.0026,-0.229492 1.240908,0 1.240907,0 0.0026,0.307617 c 0.0014,0.16919 0.0026,1.079736 0.0026,2.023438 l 2e-6,1.71582 -1.208838,0 -1.208837,0 -0.0013,-0.03613 -0.0013,-0.03613 -8.11e-4,0.03613 -8.11e-4,0.03613 -0.01535,0 c -0.01282,0 -0.01563,-0.0015 -0.01705,-0.0088 l -0.0017,-0.0088 -5.32e-4,0.0088 c -4.21e-4,0.007 -0.0029,0.0088 -0.0118,0.0088 l -0.01127,0 -0.0024,-0.118164 z m 0.03165,-0.0312 c -9.34e-4,-0.0049 -0.0017,-0.0018 -0.0018,0.0068 -4.3e-5,0.0086 7.21e-4,0.01257 0.0017,0.0088 9.78e-4,-0.0037 0.001,-0.01077 7.9e-5,-0.01563 z m 0.0353,-0.234249 c -7.43e-4,-0.01567 -0.0014,-0.0039 -0.0014,0.0262 -7e-6,0.03008 6.02e-4,0.0429 0.0014,0.02849 7.5e-4,-0.01441 7.55e-4,-0.03902 1.1e-5,-0.05469 l 0,0 z m -0.03132,-0.0587 c -8.69e-4,-0.007 -0.0016,-0.0022 -0.0016,0.01067 -2.2e-5,0.01289 6.89e-4,0.01863 0.0016,0.01277 8.91e-4,-0.0059 9.09e-4,-0.01642 3.9e-5,-0.02344 z m 0.0039,-0.336007 c -8.22e-4,-0.0091 -0.0015,-0.0017 -0.0015,0.0166 0,0.01826 6.73e-4,0.02573 0.0015,0.0166 8.22e-4,-0.0091 8.22e-4,-0.02407 0,-0.0332 z m 0.03129,-0.148285 c -7.65e-4,-0.01351 -0.0014,-0.0035 -0.0014,0.02231 -8e-6,0.02578 6.18e-4,0.03684 0.0014,0.02457 7.73e-4,-0.01227 7.79e-4,-0.03336 1.4e-5,-0.04687 z m -0.02736,-0.183616 c -7.91e-4,-0.01135 -0.0014,-0.0031 -0.0015,0.01842 -1e-5,0.02148 6.37e-4,0.03077 0.0014,0.02064 8.02e-4,-0.01013 8.1e-4,-0.02771 1.8e-5,-0.03906 l 0,0 z m 0.0039,-0.3125 c -7.92e-4,-0.01135 -0.0014,-0.0031 -0.0015,0.01842 -1e-5,0.02148 6.37e-4,0.03077 0.0014,0.02064 8.02e-4,-0.01013 8.1e-4,-0.02771 1.8e-5,-0.03906 l 10e-7,0 z m 0.02736,-0.140585 c -7.43e-4,-0.01567 -0.0014,-0.0039 -0.0014,0.0262 -6e-6,0.03008 6.02e-4,0.0429 0.0014,0.02849 7.49e-4,-0.01441 7.54e-4,-0.03902 1.1e-5,-0.05469 l 0,0 z m -0.02347,-0.115405 c -8.05e-4,-0.0102 -0.0015,-0.0019 -0.0015,0.01855 0,0.02041 6.58e-4,0.02876 0.0015,0.01855 8.04e-4,-0.0102 8.04e-4,-0.0269 0,-0.03711 z m 0.0039,-0.2206 c -8.25e-4,-0.0092 -0.0015,-0.0026 -0.0015,0.01454 -1.4e-5,0.01719 6.61e-4,0.0247 0.0015,0.01671 8.4e-4,-0.008 8.51e-4,-0.02206 2.6e-5,-0.03125 z m 0.0039,-0.168072 c -8.67e-4,-0.007 -0.0016,-0.0013 -0.0016,0.0127 0,0.01396 7.09e-4,0.01968 0.0016,0.0127 8.66e-4,-0.007 8.66e-4,-0.01841 0,-0.02539 z m 0.0038,-0.109329 c -9.34e-4,-0.0049 -0.0017,-0.0018 -0.0018,0.0068 -4.3e-5,0.0086 7.21e-4,0.01257 0.0017,0.0088 9.78e-4,-0.0037 0.001,-0.01077 7.9e-5,-0.01563 z m 0.01044,-0.07253 c 0.001,-0.0017 0.0084,-0.0035 0.01646,-0.004 0.008,-5.4e-4 0.01738,-0.0026 0.02078,-0.0046 0.0041,-0.0024 -4.08e-4,-0.0029 -0.01334,-0.0013 -0.02443,0.0029 -0.0295,0.0077 -0.03144,0.02916 l -0.0015,0.01714 0.0036,-0.01666 c 0.002,-0.0092 0.0044,-0.01803 0.0055,-0.01969 z"
     id="path3547"
     inkscape:connector-curvature="0" /><path
     style="fill:#ff0000"
     d="m 77.370941,53.215719 c -0.0026,-0.114602 -0.0085,-0.932377 -0.01274,-1.769532 -0.0022,-0.445545 -0.0018,-0.518563 0.0029,-0.518614 0.0048,-5.2e-5 0.0048,-5.45e-4 -4e-6,-0.0036 -0.0047,-0.003 -0.0052,-0.09204 -0.0029,-0.629823 0.0014,-0.344478 0.0038,-0.714654 0.0052,-0.822613 l 0.0026,-0.196289 1.240909,0 1.24091,0 0.0026,0.276035 c 0.0014,0.15182 0.0026,1.062367 0.0026,2.023438 l 0,1.747402 -1.208789,0 -1.20879,0 -0.0014,-0.02246 -0.0014,-0.02246 -7.38e-4,0.02246 -7.39e-4,0.02246 -0.01534,0 c -0.01132,0 -0.01581,-0.0018 -0.01712,-0.0068 -0.0017,-0.0065 -0.0018,-0.0065 -0.0022,0 -3.2e-4,0.0048 -0.0038,0.0068 -0.01173,0.0068 l -0.01127,0 -0.0024,-0.106445 z m 0.06673,-2.124756 c -0.0012,-0.0031 -0.0022,-0.0022 -0.0024,0.0024 -1.7e-4,0.0041 7.54e-4,0.0064 0.0021,0.0051 0.0013,-0.0013 0.0014,-0.0047 3.08e-4,-0.0075 z m 0.0066,-0.01705 c 0.0013,-0.0035 6.8e-4,-0.005 -0.0015,-0.0037 -0.0021,0.0013 -0.0039,0.004 -0.0039,0.0061 0,0.0056 0.0028,0.0044 0.0054,-0.0024 z m 0.02488,-0.0083 c -0.0038,-9.82e-4 -0.0099,-9.82e-4 -0.01367,0 -0.0038,9.83e-4 -6.83e-4,0.0018 0.0068,0.0018 0.0075,0 0.0106,-8.03e-4 0.0068,-0.0018 z"
     id="path3549"
     inkscape:connector-curvature="0" /><path
     style="fill:#ff0000"
     d="m 79.863443,56.601329 c 0,-3.522466 -0.0066,-8.673296 -0.01472,-11.446291 l -0.01471,-5.041808 0.04511,0 0.04511,0 0.01355,10.667369 c 0.0074,5.867053 0.01925,11.017884 0.02622,11.446291 l 0.01268,0.778922 -0.05662,0 -0.05662,0 0,-6.404483 z"
     id="path3553"
     inkscape:connector-curvature="0" /><path
     style="fill:#ff0000"
     d="m 58.539755,60.764812 0,-2.241 2.734514,0.0119 c 4.254311,0.01852 10.654178,-0.03419 12.667155,-0.104342 1.103624,-0.03846 1.239132,-0.06002 1.613088,-0.256652 0.285248,-0.149989 0.55463,-0.360799 0.883883,-0.691698 0.319581,-0.321179 0.490375,-0.542763 0.650797,-0.844324 0.172039,-0.323401 0.224765,-0.543493 0.277162,-1.156947 0.05837,-0.683408 0.08913,-2.171115 0.04431,-2.143417 -0.01215,0.0075 -0.02424,0.114993 -0.02685,0.238848 -0.01803,0.854862 -0.0271,-2.597349 -0.01991,-7.580605 l 0.0085,-5.88335 0.570099,0 0.570099,0 0.0092,0.06077 0.0092,0.06077 0.0033,-0.06077 0.0033,-0.06077 0.640816,0 0.640815,0 0.0032,1.585466 c 0.0018,0.872007 0.01051,2.927864 0.01944,4.568573 0.01339,2.459672 0.01459,2.181476 0.0068,-1.585466 -0.0081,-3.942728 -0.0051,-4.568573 0.02206,-4.568573 0.04381,0 0.05526,2.194236 0.06986,13.390835 0.0065,4.976816 0.01808,9.15068 0.02576,9.275252 l 0.01396,0.226495 -0.05833,0 -0.05833,0 -0.0058,-1.861679 -0.0058,-1.86168 -0.0054,1.86168 -0.0054,1.861679 -10.650796,0 -10.650795,0 0,-2.241 z"
     id="path3555"
     inkscape:connector-curvature="0" /><path
     style="fill:#ff0000"
     d="m 77.374909,54.22222 c 4.3e-5,-0.145841 0.0036,-0.202627 0.0079,-0.126192 0.0043,0.07644 0.0043,0.195759 -8e-5,0.265165 -0.0044,0.06941 -0.0079,0.0069 -0.0079,-0.138973 z"
     id="path3557"
     inkscape:connector-curvature="0" /><path
     style="fill:#ff0000"
     d="m 77.414975,54.111735 c 4.5e-4,-0.03646 0.0054,-0.0487 0.011,-0.0272 0.0056,0.0215 0.0052,0.05133 -8.19e-4,0.06629 -0.0061,0.01496 -0.01064,-0.0026 -0.01019,-0.03909 z"
     id="path3559"
     inkscape:connector-curvature="0" /><path
     style="fill:#ff0000"
     d="m 23.082879,65.52372 0,-14.46875 0.25,0 0.25,0 8.65e-4,1.078125 c 0.0012,1.552451 0.11075,3.51848 0.219817,3.946551 0.138325,0.542911 0.382327,0.946719 0.873344,1.445331 0.295898,0.300475 0.57257,0.510907 0.853695,0.649304 0.383816,0.188952 0.489926,0.210128 1.374724,0.274349 1.326504,0.09628 18.302785,0.09808 19.311406,0.002 0.654289,-0.0623 0.773907,-0.09359 1.187156,-0.310619 0.806797,-0.423702 1.436497,-1.177066 1.65664,-1.981979 0.08273,-0.302496 0.158849,-1.545732 0.248341,-4.056238 l 0.03732,-1.046875 1.201971,0 1.20197,0 0.04032,2.234375 c 0.02218,1.228906 0.07155,2.403125 0.109705,2.609375 0.141857,0.766709 0.654075,1.523836 1.371272,2.026921 0.7021,0.492495 0.736345,0.498645 3.174415,0.57005 2.352759,0.06891 13.631857,0.02487 16.785799,-0.06554 l 1.867512,-0.05353 0.384247,-0.189164 c 0.749073,-0.368768 1.546873,-1.262049 1.756664,-1.966905 0.08382,-0.281623 0.09944,-1.606277 0.124991,-10.603079 0.01606,-5.654687 0.0058,-10.943572 -0.02274,-11.753077 l -0.05194,-1.471829 -0.234539,-0.446326 c -0.403925,-0.768672 -1.104811,-1.375694 -1.888879,-1.635915 -0.380687,-0.126345 -0.48927,-0.127725 -10.5,-0.133383 -11.198816,-0.0063 -10.35205,-0.03619 -11.164164,0.393741 -0.420975,0.222864 -1.039759,0.854826 -1.256932,1.283698 -0.370749,0.732155 -0.348496,0.166031 -0.392914,9.996015 l -0.04074,9.017077 -1.331813,0 -1.331812,0 -0.01723,-9.140625 -0.01723,-9.140625 -0.145357,-0.342445 c -0.340905,-0.803132 -0.975839,-1.465744 -1.760893,-1.837653 l -0.40625,-0.192456 -1.6875,-0.04242 c -2.256549,-0.05672 -14.835827,-0.05444 -17.15625,0.0031 -1.582365,0.03925 -1.883622,0.06214 -2.125,0.161464 -0.666238,0.274157 -1.339014,0.833423 -1.662498,1.382006 -0.08323,0.141139 -0.221336,0.462471 -0.306911,0.714072 l -0.155591,0.457454 0,8.989053 0,8.989053 -0.312638,0 -0.312638,0 0.01576,-13.921875 0.01576,-13.921875 0.59375,-0.29441 c 2.977232,-1.476259 8.386482,-2.504071 15.211023,-2.890246 1.173673,-0.06641 1.645106,-0.115145 1.71875,-0.177666 0.05581,-0.04738 1.051406,-0.878214 2.212432,-1.84629 l 2.110954,-1.760138 4.982796,4.45e-4 c 2.740537,2.44e-4 5.169436,0.01807 5.397553,0.03962 l 0.414758,0.03918 1.710242,1.834893 c 1.695927,1.819535 1.712359,1.834898 1.963122,1.835377 0.450721,8.61e-4 2.837045,0.126655 4.21587,0.222237 6.924546,0.48002 12.011097,1.488065 14.421875,2.858106 l 0.453125,0.257511 0.01042,7.034439 0.01042,7.03444 0.05043,-6.34375 c 0.02774,-3.489062 0.07355,-6.610937 0.101808,-6.9375 l 0.05138,-0.59375 0.293504,0.297431 c 0.161427,0.163587 0.367563,0.409342 0.45808,0.546122 l 0.164576,0.248691 0.05138,2.235128 c 0.02826,1.229321 0.05312,4.400753 0.05525,7.047628 0.0021,2.646875 0.02987,5.2625 0.06164,5.8125 0.09146,1.583098 0.160833,23.46875 0.07439,23.46875 -0.05233,0 -0.07078,2.036688 -0.07078,7.813541 l 0,7.81354 -0.344272,0.686463 -0.344272,0.686456 -7.905728,0 -7.905728,0 0,-0.9375 0,-0.9375 -12.84375,0 -12.84375,0 0,0.9375 0,0.9375 -7.28125,0 -7.28125,0 0,-14.46875 z M 71.10627,76.240353 c 1.045279,-0.322854 1.756805,-1.541702 1.540834,-2.63946 -0.20429,-1.038388 -0.875849,-1.692009 -1.909474,-1.858469 -0.673075,-0.108396 -1.481612,0.117095 -1.975847,0.551039 -0.295855,0.259765 -0.589995,0.82866 -0.676481,1.308382 -0.202792,1.124847 0.516747,2.343092 1.580338,2.675657 0.390935,0.122238 0.973208,0.107223 1.44063,-0.03715 z m -39.990508,-0.06597 c 0.744518,-0.137632 1.507248,-0.702828 1.788821,-1.325547 0.125722,-0.278041 0.147009,-0.424651 0.147026,-1.012612 1.8e-5,-0.614485 -0.0177,-0.725312 -0.166866,-1.043531 -0.427155,-0.91128 -1.434436,-1.421008 -2.46923,-1.249538 -0.791258,0.131116 -1.381944,0.559525 -1.720962,1.24817 -0.188628,0.383157 -0.205422,0.465919 -0.205422,1.012335 0,0.539555 0.01862,0.634364 0.199571,1.016361 0.209768,0.442823 0.669224,0.960234 1.008451,1.135656 0.201268,0.104079 0.778363,0.275373 0.952374,0.282684 0.05384,0.0023 0.26365,-0.02653 0.466237,-0.06398 z M 58.250827,27.180362 c 0.375308,-0.215247 0.577178,-0.457494 0.798751,-0.958509 0.194833,-0.440552 0.195047,-0.473523 0.0055,-0.847551 -0.227791,-0.449525 -0.439174,-0.668974 -0.827292,-0.858863 l -0.349342,-0.170917 -7.444664,-0.0042 c -8.279746,-0.0046 -7.815979,-0.0282 -8.329303,0.423641 -0.300157,0.26421 -0.58247,0.767895 -0.583451,1.040959 -8.93e-4,0.248791 0.337024,0.884678 0.608519,1.145099 0.456141,0.437535 -0.05985,0.411686 8.265821,0.414071 l 7.53125,0.0022 0.324199,-0.185935 0,-1e-6 z"
     id="path3561"
     inkscape:connector-curvature="0" /><path
     style="fill:#ff0000"
     d="m 51.832879,52.96122 0,-1.90625 -1.28125,0 -1.28125,0 -0.0076,0.640625 c -0.0042,0.352344 -0.02733,1.132813 -0.05143,1.734375 -0.04319,1.078051 -0.04398,1.067959 -0.05489,-0.703125 l -0.01107,-1.796875 1.375,0 1.375,0 0,1.96875 c 0,1.082813 -0.01406,1.96875 -0.03125,1.96875 -0.01719,0 -0.03125,-0.857812 -0.03125,-1.90625 z"
     id="path3563"
     inkscape:connector-curvature="0" /><path
     style="fill:#ff0000"
     d="m 49.817254,50.883314 c 0.386719,-0.01097 1.019531,-0.01097 1.40625,0 0.386719,0.01096 0.07031,0.01994 -0.703125,0.01994 -0.773437,0 -1.089844,-0.009 -0.703125,-0.01994 z"
     id="path3565"
     inkscape:connector-curvature="0" /><path
     style="fill:#ff0000"
     d="m 49.78254,50.883367 c 0.367626,-0.01103 0.986376,-0.01107 1.375,-8.6e-5 0.388624,0.01098 0.08784,0.02001 -0.668411,0.02006 -0.75625,4.7e-5 -1.074215,-0.0089 -0.706589,-0.01997 z"
     id="path3567"
     inkscape:connector-curvature="0" /><path
     style="fill:#ff0000"
     d="m 50.101103,50.883564 c 0.233461,-0.01206 0.599086,-0.01197 0.8125,1.99e-4 0.213415,0.01217 0.0224,0.02203 -0.424474,0.02192 -0.446875,-1.09e-4 -0.621486,-0.01006 -0.388026,-0.02212 z"
     id="path3569"
     inkscape:connector-curvature="0" /><path
     style="fill:#ff0000"
     d="m 23.082879,65.52372 0,-14.46875 0.25,0 0.25,0 0.0014,0.953125 c 0.0018,1.226125 0.105416,3.408543 0.184622,3.887428 0.11511,0.695959 0.622678,1.46078 1.314003,1.979987 0.558321,0.419316 0.785152,0.48906 1.807043,0.555611 1.43958,0.09375 12.71782,0.143138 16.411707,0.07186 3.682443,-0.07106 3.650441,-0.0673 4.332086,-0.507872 0.72165,-0.466426 1.226805,-1.122754 1.412312,-1.834965 0.09537,-0.366134 0.196368,-2.010668 0.246368,-4.011425 0.02122,-0.848974 0.01451,-1.009989 -0.02735,-0.65625 -0.08353,0.705883 -0.104462,0.715103 -0.112415,0.0495 l -0.0072,-0.606746 0.484375,-0.0213 0.484375,-0.0213 -0.482581,-0.01258 -0.482581,-0.01258 -0.01742,-9.140625 -0.01742,-9.140625 -0.225228,-0.46875 c -0.379297,-0.789403 -0.974778,-1.383511 -1.743522,-1.739503 -0.343625,-0.159127 -0.344636,-0.159201 -2.78125,-0.203697 -3.056272,-0.05581 -10.651363,-0.05783 -14.972025,-0.004 l -3.284526,0.04094 -0.481368,0.237922 c -0.539628,0.266718 -1.123944,0.771493 -1.408688,1.216928 -0.103771,0.162333 -0.260893,0.511047 -0.349159,0.77492 l -0.160484,0.47977 0,8.973355 0,8.973355 -0.3125,0 -0.3125,0 0,-13.928435 0,-13.928435 0.578125,-0.268835 c 1.315385,-0.611669 2.53938,-1.029896 4.194323,-1.433156 3.182622,-0.77551 6.433511,-1.199427 11.540052,-1.504824 0.961846,-0.05752 1.116362,-0.08177 1.28125,-0.201021 0.103125,-0.07459 1.107936,-0.903352 2.232913,-1.841702 l 2.045414,-1.706092 5.212399,0 c 2.86682,0 5.298234,0.01717 5.403144,0.03815 0.140834,0.02817 0.382641,0.244857 0.924116,0.828125 0.403353,0.434487 1.177538,1.25698 1.720408,1.827763 l 0.987039,1.037786 1.049783,0.0428 c 8.458777,0.344848 15.057799,1.47313 17.80323,3.043945 l 0.465304,0.266227 0.0102,5.785729 0.0102,5.785728 0.05143,-5.125 c 0.02828,-2.81875 0.07291,-5.373764 0.09917,-5.67781 l 0.04775,-0.552809 0.180115,0.141952 c 0.09906,0.07807 0.299516,0.304147 0.445449,0.502384 0.240173,0.326251 0.269703,0.406701 0.311397,0.848357 0.02533,0.268359 0.0695,3.483239 0.09815,7.144176 0.02865,3.660938 0.08234,9.890625 0.119304,13.84375 0.03697,3.953125 0.05232,9.465625 0.03413,12.25 -0.0182,2.784375 -0.054,8.564063 -0.07957,12.84375 l -0.04648,7.78125 -0.328695,0.640625 -0.328694,0.640625 -7.905681,0 -7.90568,0 0,-0.9375 0,-0.9375 -12.84375,0 -12.84375,0 0,0.9375 0,0.9375 -7.28125,0 -7.28125,0 0,-14.46875 z m 48.208168,10.637885 c 1.774979,-0.812613 1.844866,-3.4107 0.11358,-4.222387 -0.314765,-0.147573 -0.42746,-0.165498 -1.040498,-0.165498 -0.613038,0 -0.725732,0.01793 -1.040497,0.165498 -0.451345,0.211606 -0.834865,0.59622 -1.041037,1.044005 -0.233496,0.50713 -0.267237,1.330269 -0.0754,1.839392 0.246909,0.655273 0.817341,1.231367 1.430605,1.444805 0.427588,0.148815 1.205865,0.099 1.653245,-0.105815 z M 31.486461,76.07517 c 0.594227,-0.207335 1.187664,-0.731427 1.429603,-1.26255 0.108381,-0.237926 0.131559,-0.410203 0.131366,-0.9764 -1.88e-4,-0.617506 -0.01726,-0.722576 -0.167412,-1.032034 -0.839049,-1.72921 -3.3524,-1.708045 -4.208438,0.03544 -0.163104,0.332191 -0.182333,0.434556 -0.181341,0.965345 0.001,0.539701 0.01935,0.631228 0.201463,1.005453 0.557855,1.146331 1.679446,1.653898 2.794759,1.264747 z m 41.526335,-17.64505 2.086166,-0.05341 0.403844,-0.198811 c 0.568801,-0.28002 1.301896,-1.015851 1.584371,-1.590283 l 0.214452,-0.436101 0.05137,-9.220149 c 0.02825,-5.071081 0.02754,-10.41553 -0.0016,-11.876552 L 77.298441,32.398411 77.05467,31.961066 C 76.684918,31.2977 76.160797,30.787134 75.527359,30.473256 l -0.528813,-0.262036 -10.348458,0 -10.348458,0 -0.364015,0.146852 c -0.777248,0.313559 -1.555364,1.092601 -1.861916,1.864134 l -0.144633,0.364014 -0.04147,6.75 c -0.02281,3.7125 -0.0449,7.82455 -0.04909,9.137887 l -0.0076,2.387887 -0.453125,0.02157 -0.453125,0.02157 0.484375,0.01242 0.484375,0.01242 -0.01362,1.296875 -0.01362,1.296875 -0.03979,-1.21875 c -0.02459,-0.753333 -0.03029,-0.39532 -0.01492,0.9375 0.01367,1.185938 0.05232,2.339063 0.08588,2.5625 0.167372,1.114378 1.271203,2.348906 2.297125,2.569113 0.221858,0.04762 1.281973,0.09231 2.82395,0.119038 2.967597,0.05145 13.077759,0.01162 15.992417,-0.063 z M 58.146209,27.242047 c 0.365283,-0.186354 0.654178,-0.507375 0.877274,-0.97483 0.180432,-0.378062 0.192429,-0.438973 0.128493,-0.652374 -0.114208,-0.381193 -0.450448,-0.822156 -0.782951,-1.026801 l -0.307603,-0.189322 -7.692397,0 -7.692396,0 -0.255917,0.136943 c -0.418599,0.223994 -0.894469,0.869855 -0.89896,1.220088 -0.003,0.231378 0.265648,0.800958 0.507094,1.075255 0.313577,0.356242 0.427894,0.419085 0.864989,0.475504 0.189912,0.02451 3.644071,0.04826 7.675909,0.05277 7.223834,0.0081 7.334196,0.0064 7.576465,-0.117228 z"
     id="path3571"
     inkscape:connector-curvature="0" /><path
     style="fill:#ff0000"
     d="m 63.303266,82.38076 2.4e-5,-4.21875 -12.832685,0 -12.832684,0 0.08007,4.201971 0.08007,4.201973 -4.591134,-0.05618 C 28.953232,86.457729 28.568178,86.434816 27.968,86.198029 25.829005,85.354135 23.133477,82.726746 21.583078,79.97451 l -0.492907,-0.875 -0.07654,-13.96875 -0.07654,-13.96875 0.917476,0 c 0.504612,0 1.083507,-0.03321 1.286432,-0.07379 l 0.368956,-0.07379 0.126152,2.542541 c 0.143229,2.886715 0.225678,3.166233 1.198418,4.062874 0.972496,0.896415 0.400081,0.854667 11.718769,0.854667 l 10.1875,0 0.669443,-0.370797 c 0.368195,-0.203939 0.833873,-0.569564 1.034842,-0.8125 0.772782,-0.934165 0.753578,-0.604745 0.739912,-12.691703 -0.0068,-6.05 -0.04692,-11.28125 -0.08907,-11.625 -0.12833,-1.046682 -0.767051,-1.967097 -1.718296,-2.476113 l -0.511835,-0.273887 -10.4375,0 -10.4375,0 -0.591638,0.347782 c -0.689637,0.405388 -1.179058,0.976695 -1.487283,1.736123 -0.202225,0.498259 -0.220164,1.256067 -0.226595,9.572345 l -0.007,9.03125 -1.375,0 -1.375,0 -1.19e-4,-5.65625 c -6.5e-5,-3.110937 -0.0366,-8.890625 -0.08119,-12.84375 l -0.08107,-7.1875 0.430508,-0.561465 c 1.939661,-2.529693 7.787635,-4.185642 16.794367,-4.755597 1.16875,-0.07396 2.2375,-0.157237 2.375,-0.185061 0.1375,-0.02782 1.232217,-0.868415 2.432703,-1.867982 l 2.182705,-1.817395 5.317295,-0.0034 5.317297,-0.0034 1.8125,1.874013 1.8125,1.874013 2.5,0.134259 c 7.64394,0.410508 13.736265,1.497753 16.164918,2.884814 l 0.647582,0.369849 0.02784,2.091222 0.02784,2.091221 0.03788,-1.978092 c 0.04163,-2.173925 0.08025,-2.251217 0.691551,-1.383969 l 0.347611,0.493159 0.133593,10.559451 c 0.07991,6.31663 0.100575,17.214316 0.05142,27.121951 l -0.08217,16.5625 -0.774031,1.436525 c -0.425718,0.790088 -1.098195,1.868299 -1.494395,2.396024 -0.946325,1.260471 -2.821154,3.015141 -3.660273,3.425684 -0.86003,0.420773 -2.182301,0.530897 -6.963137,0.579918 l -3.593774,0.03685 2.4e-5,-4.21875 z m 8.141384,-6.291541 c 0.804728,-0.411661 1.315972,-1.449449 1.18495,-2.405363 -0.161064,-1.175082 -1.02246,-1.896846 -2.26381,-1.896846 -1.271514,0 -2.100057,0.702134 -2.267157,1.921259 -0.25418,1.854445 1.681997,3.232184 3.346017,2.38095 z M 31.777019,75.924175 c 0.882144,-0.45239 1.276271,-1.09307 1.276271,-2.074665 0,-1.347883 -0.94648,-2.3125 -2.26902,-2.3125 -1.509709,0 -2.620908,1.426919 -2.233009,2.867465 0.385571,1.431901 1.955103,2.17133 3.225758,1.5197 z M 75.17829,58.289172 c 0.602026,-0.172635 1.550122,-1.018555 1.860742,-1.660208 0.254223,-0.525156 0.258029,-0.693145 0.280361,-12.372434 l 0.02264,-11.84005 -0.365801,-0.591668 c -0.437181,-0.707125 -1.249134,-1.356364 -1.923345,-1.53791 -0.330021,-0.08887 -3.826232,-0.12057 -10.713494,-0.09715 l -10.223603,0.03476 -0.589514,0.346538 c -0.324234,0.190595 -0.730305,0.531122 -0.902383,0.756727 -0.71478,0.937124 -0.680528,0.323745 -0.720877,12.909667 -0.04137,12.904686 -0.08754,12.161543 0.816576,13.142398 0.71624,0.777029 1.112749,0.955623 2.333698,1.051134 1.660183,0.129874 19.618866,0.0033 20.125,-0.141802 z M 58.17762,27.193066 c 0.552375,-0.276366 1.060876,-1.149157 0.943043,-1.618638 -0.04516,-0.179935 -0.270043,-0.515088 -0.499741,-0.744786 l -0.417632,-0.417632 -7.839707,0 -7.839705,0 -0.485295,0.485295 c -0.669862,0.669862 -0.621661,1.387416 0.139555,2.0775 0.396638,0.359574 1.124533,0.394 8.812652,0.416799 6.200618,0.01839 6.785553,0.0022 7.18683,-0.198538 z"
     id="path3573"
     inkscape:connector-curvature="0" /><path
     style="fill:#ff0000"
     d="m 63.294068,82.393533 0,-4.231523 -12.831308,0 -12.831307,0 0.08994,4.1875 0.08994,4.1875 -3.85238,-10e-4 c -4.955734,-0.0012 -5.669079,-0.08021 -6.855636,-0.759102 -2.090812,-1.19622 -4.282779,-3.523233 -5.642328,-5.989898 l -0.378929,-0.6875 -0.08109,-13.952676 -0.08109,-13.952676 1.259695,-0.08931 c 0.692832,-0.04912 1.284841,-0.06416 1.315576,-0.03343 0.03073,0.03073 0.105877,1.161245 0.166982,2.512245 0.09598,2.122116 0.14796,2.532509 0.381988,3.015945 0.339954,0.702251 1.250912,1.514688 1.923669,1.715619 0.387272,0.115666 3.006866,0.154169 10.638781,0.156364 l 10.125,0.0029 0.514559,-0.275275 c 0.795832,-0.42575 1.25199,-0.864305 1.569452,-1.508892 l 0.290989,-0.590832 0,-11.75 c 0,-10.579308 -0.02024,-11.794495 -0.203113,-12.196591 -0.288803,-0.635 -0.93858,-1.335347 -1.535052,-1.654522 l -0.511835,-0.273887 -10.3125,0 c -5.671875,0 -10.457229,0.04076 -10.634119,0.09058 -0.633541,0.178422 -1.457727,0.941749 -1.823241,1.688606 l -0.352769,0.720816 -0.04659,9.09375 -0.04659,9.09375 -1.340492,0 -1.340493,0 -0.08716,-12.822026 c -0.08699,-12.79642 -0.08665,-12.822856 0.169876,-13.23792 1.551204,-2.509902 7.282954,-4.240397 16.189078,-4.887708 1.44375,-0.104934 2.79375,-0.216218 3,-0.247298 0.251009,-0.03783 1.097754,-0.65556 2.560899,-1.868279 l 2.185898,-1.811769 5.335274,0 5.335274,0 1.768735,1.860465 1.768733,1.860464 1.585093,0.08357 c 8.388676,0.442259 14.441372,1.475795 17.085094,2.917387 l 0.625,0.340805 0.06861,1.499906 0.06861,1.499905 0.02514,-1.354166 c 0.02786,-1.500465 0.0776,-1.558074 0.690934,-0.800276 l 0.367945,0.45461 0.119849,10.849916 c 0.06592,5.967454 0.0919,18.194654 0.05774,27.171554 l -0.0621,16.321638 -0.652848,1.178362 c -1.173638,2.118368 -1.75378,2.908402 -3.166373,4.311951 -1.7592,1.747935 -2.286613,2.028487 -4.100072,2.180999 -0.710838,0.05978 -2.937746,0.131703 -4.948683,0.159826 l -3.65625,0.05113 0,-4.231522 z m 8.25979,-6.390748 c 0.886201,-0.59721 1.268656,-1.584562 1.001671,-2.585926 -0.270744,-1.015459 -1.099668,-1.629849 -2.198961,-1.629849 -0.738404,0 -1.303958,0.242704 -1.721299,0.738687 -0.899055,1.068467 -0.663539,2.653448 0.51309,3.452987 0.626366,0.425627 1.79234,0.437309 2.405499,0.0241 z m -39.82229,-0.07703 c 0.900243,-0.41549 1.3125,-1.071456 1.3125,-2.088397 0,-0.743436 -0.241577,-1.282303 -0.791208,-1.764885 -0.825091,-0.72444 -2.12886,-0.707886 -2.953919,0.03751 -0.629263,0.568501 -0.796986,1.010239 -0.730831,1.924821 0.04311,0.595978 0.13071,0.844216 0.430183,1.219041 0.709044,0.887448 1.725091,1.13722 2.733275,0.671914 z M 74.838193,58.324697 c 0.641566,-0.09825 1.547438,-0.724298 2.014417,-1.392165 l 0.378958,-0.54198 0.03308,-12.035467 0.03308,-12.035466 -0.416443,-0.610055 c -0.639551,-0.93689 -1.390276,-1.383549 -2.491326,-1.482266 -0.499615,-0.0448 -5.275029,-0.06375 -10.612031,-0.04212 l -9.70364,0.03933 -0.67136,0.465597 c -0.831646,0.576757 -1.193545,1.1002 -1.357168,1.96298 -0.188768,0.995375 -0.171657,23.017337 0.01838,23.651618 0.175335,0.585218 0.81585,1.35988 1.450832,1.75469 0.383694,0.238569 0.710904,0.304584 1.841598,0.37155 1.613177,0.09554 18.775126,0.0019 19.481625,-0.106248 z M 58.365508,27.075634 c 0.211167,-0.150632 0.486002,-0.500207 0.610743,-0.776835 0.193972,-0.430151 0.203902,-0.55825 0.0686,-0.884905 -0.08701,-0.21007 -0.323977,-0.521432 -0.526584,-0.691915 l -0.368378,-0.309969 -7.786052,0 c -7.706512,0 -7.789441,0.0027 -8.117906,0.261037 -0.779066,0.612814 -0.852511,1.355556 -0.210161,2.125358 l 0.355556,0.426105 1.482622,0.07544 c 0.815443,0.04149 4.323248,0.06962 7.795123,0.0625 6.285721,-0.01288 6.314128,-0.0141 6.69644,-0.286815 z"
     id="path3575"
     inkscape:connector-curvature="0" /><path
     style="fill:#ff0000"
     d="m 21.575318,50.944637 c 0.395312,-0.02481 1.042187,-0.02481 1.4375,0 0.395312,0.02481 0.07188,0.0451 -0.71875,0.0451 -0.790625,0 -1.114063,-0.0203 -0.71875,-0.0451 z"
     id="path3577"
     inkscape:connector-curvature="0" /><path
     style="fill:#ff0000"
     d="m 22.075318,50.950845 c 0.120312,-0.03144 0.317187,-0.03144 0.4375,0 0.120312,0.03144 0.02188,0.05716 -0.21875,0.05716 -0.240625,0 -0.339063,-0.02572 -0.21875,-0.05716 z"
     id="path3579"
     inkscape:connector-curvature="0" /><path
     style="fill:#ff0000"
     d="m 63.294068,82.424166 0,-4.262156 -12.822459,0 -12.822459,0 0.09098,4.198124 0.09098,4.198125 -4.674769,-0.04188 -4.674767,-0.04187 -0.708546,-0.332162 C 25.544404,85.097581 22.957848,82.541006 21.561123,80.00245 l -0.496801,-0.90294 -0.09104,-14.03125 -0.09104,-14.03125 1.376089,0 1.37609,0 0.07069,2.40625 c 0.04132,1.406449 0.136357,2.604989 0.228729,2.884562 0.230698,0.698233 0.999425,1.50574 1.734438,1.821933 0.633224,0.272405 0.640256,0.272589 10.786827,0.281792 8.940256,0.0081 10.209078,-0.01414 10.621023,-0.186265 0.74835,-0.312682 1.275953,-0.784075 1.666522,-1.48898 l 0.363911,-0.656792 0,-11.75 c 0,-10.500322 -0.02125,-11.79653 -0.199808,-12.1875 -0.295436,-0.646887 -0.815346,-1.211581 -1.469617,-1.596201 l -0.580575,-0.341299 -9.8125,-0.03554 c -6.099915,-0.02209 -10.11744,0.0117 -10.618468,0.08932 -0.981866,0.152106 -1.662379,0.602432 -2.194032,1.451888 l -0.375,0.599163 -0.07749,8.510086 c -0.04262,4.680548 -0.08481,8.861649 -0.09375,9.291336 l -0.01626,0.78125 -1.354501,0 -1.354501,0 -0.083,-7.708105 c -0.139388,-12.944975 -0.112899,-17.87149 0.09829,-18.279882 0.5178,-1.001315 2.620103,-2.330096 4.832153,-3.054208 3.058528,-1.001205 7.936669,-1.775808 12.799059,-2.03237 0.89375,-0.04716 1.7375,-0.129196 1.875,-0.182307 0.1375,-0.05311 1.19779,-0.888916 2.356199,-1.857346 l 2.106198,-1.760782 5.393802,0.0059 5.393801,0.0059 1.717063,1.8466 1.717065,1.8466 2.720435,0.15244 c 7.367399,0.412832 12.651342,1.319726 15.564187,2.671313 l 1.09375,0.50751 0.02448,1.013121 0.02448,1.01312 0.04392,-0.852198 c 0.04976,-0.965481 0.13345,-0.999645 0.708459,-0.289204 l 0.3785,0.46765 0.09873,9.399376 c 0.0543,5.169658 0.08415,17.388616 0.06633,27.153243 l -0.0324,17.753866 -0.733362,1.308633 c -1.186381,2.117019 -1.549803,2.606525 -3.071551,4.137183 -2.287902,2.301297 -2.223054,2.283415 -8.788837,2.423555 l -3.96875,0.08471 0,-4.262155 z m 8.422626,-6.554836 c 1.366854,-1.04255 1.149397,-3.272156 -0.381525,-3.911816 -1.771989,-0.740385 -3.647365,0.782279 -3.17423,2.577232 0.319504,1.21211 1.098172,1.785274 2.336874,1.720127 0.605708,-0.03186 0.861076,-0.112632 1.218881,-0.385543 z m -40.079436,0.100413 c 0.901138,-0.376519 1.408171,-1.151282 1.404754,-2.146503 -0.0062,-1.811723 -2.017014,-2.888897 -3.503732,-1.876936 -0.748293,0.509339 -0.931712,0.881576 -0.931712,1.890852 0,0.806872 0.03973,0.958904 0.360489,1.37944 0.639969,0.839043 1.729279,1.146289 2.670201,0.753147 z M 75.687143,58.008212 c 0.653981,-0.38445 1.188383,-0.964392 1.438367,-1.560937 0.137454,-0.328011 0.168119,-2.588487 0.166183,-12.25 l -0.0024,-11.847765 -0.372155,-0.592625 c -0.47601,-0.758007 -1.218553,-1.293726 -2.038577,-1.470765 -0.455207,-0.09828 -3.611551,-0.128113 -10.647018,-0.100648 -11.181595,0.04365 -10.385373,-0.02244 -11.381146,0.944647 -0.925445,0.898781 -0.864897,0.03175 -0.903824,12.94222 -0.02371,7.863049 0.0076,11.755835 0.09715,12.088494 0.204062,0.757824 0.850274,1.518419 1.622925,1.910187 l 0.68339,0.34651 10.378251,-0.03401 10.378252,-0.03401 0.580575,-0.341298 z M 58.365508,27.075634 c 0.211167,-0.150632 0.486002,-0.500207 0.610743,-0.776835 0.193972,-0.430151 0.203902,-0.55825 0.0686,-0.884905 -0.08701,-0.21007 -0.323977,-0.521432 -0.526584,-0.691915 l -0.368378,-0.309969 -7.786052,0 c -7.706512,0 -7.789441,0.0027 -8.117906,0.261037 -0.778964,0.612734 -0.852481,1.355356 -0.210404,2.125358 0.343145,0.411512 0.393255,0.42868 1.463179,0.501279 0.609326,0.04134 4.11724,0.06947 7.795365,0.0625 6.671858,-0.01264 6.688397,-0.01331 7.07144,-0.28655 z"
     id="path3581"
     inkscape:connector-curvature="0" /><path
     style="fill:#ff0000"
     d="m 63.294068,82.425255 0,-4.263245 -12.822459,0 -12.822459,0 0.09098,4.198124 0.09098,4.198125 -4.674769,-0.04188 -4.674767,-0.04187 -0.708546,-0.332162 C 25.516266,85.08439 22.993225,82.560999 21.48106,79.84951 l -0.418266,-0.75 -0.09027,-14.03125 -0.09027,-14.03125 1.375152,0 1.375152,0 0.06563,2.40625 c 0.07,2.566609 0.153134,2.966053 0.791493,3.802985 0.172078,0.225605 0.57815,0.566133 0.902383,0.756728 l 0.589514,0.346537 10.359589,0.03473 c 10.179198,0.03413 10.368682,0.03033 10.881838,-0.218084 0.654549,-0.316861 1.260873,-0.903512 1.612352,-1.560036 l 0.271221,-0.506614 -0.02124,-11.768105 c -0.01949,-10.796958 -0.03876,-11.802716 -0.233507,-12.1875 -0.374435,-0.739815 -0.801529,-1.217683 -1.405736,-1.572857 l -0.589514,-0.346538 -10.375,4.8e-5 -10.375,4.7e-5 -0.508527,0.272152 c -0.606993,0.324846 -1.385307,1.155215 -1.628619,1.737543 -0.141399,0.338414 -0.175399,1.479425 -0.175585,5.892445 -1.25e-4,3.010022 -0.03731,7.118078 -0.08264,9.129015 l -0.08241,3.65625 -1.334371,0 -1.334371,0 -0.08299,-7.5206 c -0.14146,-12.819091 -0.112845,-18.059081 0.100874,-18.472368 0.31787,-0.614694 1.570448,-1.610945 2.748795,-2.186282 3.033956,-1.481355 7.468861,-2.368491 14.347732,-2.870046 1.716825,-0.125178 2.42504,-0.224652 2.650314,-0.372257 0.169082,-0.110787 1.188369,-0.933134 2.265081,-1.827439 l 1.957659,-1.626008 5.392027,0.0036 5.392028,0.0036 1.723577,1.854106 1.723576,1.854107 1.776424,0.08663 c 7.648008,0.37296 13.515874,1.341809 16.486763,2.722143 l 1.10216,0.512085 0.02312,0.825621 c 0.02253,0.804348 0.02431,0.808502 0.06932,0.161225 0.0533,-0.7667 0.158896,-0.781563 0.710521,-0.100013 l 0.380114,0.469644 0.09663,9.459882 c 0.05315,5.202935 0.08227,17.420997 0.06471,27.151249 l -0.03192,17.691366 -0.733362,1.308633 c -0.403348,0.719749 -0.934308,1.618009 -1.179912,1.996134 -0.670875,1.032863 -3.211026,3.53143 -3.986259,3.921 -0.864067,0.434211 -2.028719,0.544858 -6.819217,0.647851 l -3.84375,0.08264 0,-4.263245 z M 71.41352,76.03984 c 0.591976,-0.302004 0.945019,-0.776742 1.133103,-1.523694 0.449585,-1.785464 -1.354945,-3.264221 -3.095745,-2.536868 -0.906998,0.378967 -1.317524,1.00469 -1.317524,2.008163 0,1.747785 1.741436,2.837402 3.280166,2.052399 z M 32.073613,75.719795 c 1.612217,-1.066915 1.051425,-3.773315 -0.856014,-4.131152 -1.281981,-0.240501 -2.521699,0.662195 -2.642989,1.924483 -0.197918,2.059769 1.808702,3.325258 3.499003,2.206669 z m 42.746501,-17.41963 c 0.740261,-0.121931 1.505387,-0.646205 2.016081,-1.381443 l 0.395373,-0.569212 0.03482,-12.004795 0.03482,-12.004793 -0.472318,-0.67027 c -0.31559,-0.447857 -0.700449,-0.798832 -1.159817,-1.057705 l -0.6875,-0.387437 -10.375,0 -10.375,0 -0.508527,0.272198 c -0.653637,0.349871 -1.351924,1.124909 -1.570137,1.742714 -0.14046,0.39767 -0.171336,2.602573 -0.171336,12.235088 l 0,11.75 0.346537,0.589514 c 0.190595,0.324234 0.530585,0.729895 0.755534,0.901473 0.942006,0.718502 0.424947,0.686946 11.210429,0.68417 5.465625,-0.0014 10.202345,-0.04618 10.526046,-0.0995 z m -19.01095,-31.013155 2.226205,0 0.434217,-0.381248 c 0.23882,-0.209686 0.498343,-0.575549 0.576718,-0.813028 0.123272,-0.37352 0.107139,-0.488996 -0.119569,-0.855818 -0.539016,-0.872146 -0.05395,-0.824927 -8.47202,-0.824711 -8.533936,2.12e-4 -8.24489,-0.02972 -8.699883,0.901224 -0.219915,0.44996 -0.219585,0.480048 0.01094,1 0.418949,0.94496 0.20587,0.902546 4.953543,0.986027 2.344242,0.04122 4.847571,0.05528 5.562953,0.03125 0.71538,-0.02403 2.302485,-0.0437 3.526899,-0.0437 z"
     id="path3583"
     inkscape:connector-curvature="0" /><path
     style="fill:#ff0000"
     d="m 63.294068,82.429429 0,-4.267419 -12.816664,0 -12.816665,0 0.08671,4.195724 0.08672,4.195724 -4.738801,-0.03947 -4.738801,-0.03947 -0.6875,-0.361054 C 25.31927,84.879413 22.85431,82.401879 21.496759,79.909663 l -0.44386,-0.814849 -0.08729,-14.028901 -0.08729,-14.028903 1.395376,0 1.395375,0 0.0022,1.53125 c 0.0035,2.4107 0.172241,3.655247 0.585903,4.321235 0.516322,0.831268 1.355489,1.359062 2.317193,1.457394 0.430201,0.04399 5.197808,0.06257 10.594683,0.0413 7.889282,-0.0311 9.869791,-0.07132 10.104809,-0.205245 0.541081,-0.308325 1.286316,-1.06262 1.555988,-1.574907 l 0.267694,-0.508527 -0.03383,-11.75 -0.03383,-11.75 -0.312039,-0.650988 c -0.293686,-0.612702 -0.834685,-1.153424 -1.5488,-1.548012 -0.259083,-0.143156 -2.085979,-0.171522 -10.6875,-0.165943 -10.352373,0.0067 -10.376126,0.0073 -10.891027,0.274361 -0.656931,0.340709 -1.506414,1.301361 -1.669295,1.887749 -0.0771,0.277581 -0.12619,3.040987 -0.126834,7.140333 -5.75e-4,3.678125 -0.03791,7.742188 -0.08296,9.03125 l -0.08191,2.34375 -1.334817,0 -1.334817,0 -0.08292,-6.20805 c -0.04561,-3.414426 -0.08292,-9.182845 -0.08292,-12.818707 0,-5.530981 0.02961,-6.667914 0.181288,-6.96123 0.327629,-0.633564 1.519524,-1.589127 2.718733,-2.179654 3.036848,-1.495436 7.236201,-2.338434 14.38263,-2.887237 2.711034,-0.208191 2.203034,0.02324 5.004194,-2.279779 l 1.873516,-1.540343 5.389974,0 5.389973,0 1.716639,1.851014 1.716639,1.851015 2.671087,0.149025 c 7.430173,0.414544 12.671718,1.313573 15.611577,2.677695 l 1.09375,0.50751 0.02101,0.638121 c 0.01825,0.55407 0.02753,0.575358 0.07051,0.161623 0.05902,-0.568208 0.194802,-0.551157 0.713652,0.08962 l 0.382328,0.472171 0.07813,7.019854 c 0.04297,3.86092 0.08516,16.049274 0.09375,27.085232 l 0.01562,20.065376 -0.757775,1.362653 c -1.20226,2.16194 -1.574788,2.666305 -3.109638,4.210143 -2.288175,2.301571 -2.217409,2.28188 -8.726337,2.42818 l -4.03125,0.09061 0,-4.26742 z m 8.097748,-6.409483 c 1.186749,-0.574495 1.596068,-2.267001 0.809684,-3.347989 -0.326956,-0.449447 -1.236481,-0.885484 -1.840169,-0.882202 -0.686745,0.0037 -1.468181,0.382014 -1.825357,0.883622 -0.38724,0.543829 -0.487356,1.768124 -0.191389,2.340462 0.600709,1.161641 1.864191,1.578807 3.047231,1.006107 z M 31.850009,75.844245 c 0.72179,-0.342512 1.131717,-1.062299 1.130828,-1.985606 -0.0013,-1.374526 -0.859712,-2.254962 -2.198493,-2.254962 -1.698563,0 -2.732457,1.708561 -1.977548,3.267996 0.561813,1.160548 1.809404,1.559001 3.045213,0.972572 z M 74.506966,58.296638 c 1.034557,-0.119948 1.665057,-0.499501 2.328787,-1.401901 l 0.395815,-0.538145 0.03679,-11.87854 c 0.02023,-6.533198 0.0068,-11.998318 -0.02985,-12.144712 -0.101594,-0.405807 -1.1649,-1.52459 -1.742871,-1.833803 l -0.514071,-0.275027 -10.375,0.0092 c -10.270287,0.0091 -10.380047,0.01182 -10.875,0.270296 -0.645614,0.337154 -1.243115,0.96532 -1.517631,1.595519 -0.200003,0.45914 -0.222064,1.367285 -0.269965,11.112834 -0.02869,5.837058 -0.01261,11.193231 0.03575,11.902605 0.0785,1.151632 0.128835,1.351553 0.470011,1.866637 0.44198,0.667268 1.157265,1.183013 1.819231,1.311725 0.652799,0.12693 19.145708,0.12997 20.238006,0.0033 l 0,-10e-7 z M 58.426474,26.949097 c 0.220872,-0.185853 0.481191,-0.528434 0.578486,-0.761291 0.15902,-0.380589 0.153276,-0.469611 -0.05682,-0.880837 -0.47779,-0.93516 -0.160346,-0.903642 -8.722197,-0.866003 -8.493178,0.03734 -8.050413,-0.0094 -8.479324,0.894491 -0.185874,0.391701 -0.189529,0.489073 -0.03203,0.853111 0.277825,0.642142 0.49493,0.861666 0.960587,0.971292 0.237265,0.05586 3.788014,0.107318 7.890552,0.114355 l 7.459159,0.01279 0.401588,-0.337913 z"
     id="path3585"
     inkscape:connector-curvature="0" /><path
     style="fill:#ff0000"
     d="m 40.669068,83.78701 0,-2.75 9.75,0 9.75,0 0,2.75 0,2.75 -9.75,0 -9.75,0 0,-2.75 z"
     id="path3587"
     inkscape:connector-curvature="0" /><path
     style="fill:#ff0000"
     d="m 45.536383,86.613417 c 2.691977,-0.0063 7.097032,-0.0063 9.789009,0 2.691978,0.0063 0.489451,0.01144 -4.894505,0.01144 -5.383955,0 -7.586482,-0.0051 -4.894504,-0.01144 z"
     id="path3589"
     inkscape:connector-curvature="0" /><path
     style="fill:#ff0000"
     d="m 45.539919,86.525028 c 2.693922,-0.0063 7.089033,-0.0063 9.766912,10e-7 2.67788,0.0063 0.473761,0.01144 -4.898041,0.01144 -5.371802,-10e-7 -7.562794,-0.0051 -4.868871,-0.01144 z"
     id="path3591"
     inkscape:connector-curvature="0" /><path
     style="fill:#ff0000"
     d="m 47.812383,86.525033 c 1.440177,-0.0065 3.796832,-0.0065 5.237009,0 1.440178,0.0065 0.261851,0.01176 -2.618505,0.01176 -2.880355,0 -4.058682,-0.0053 -2.618504,-0.01176 z"
     id="path3593"
     inkscape:connector-curvature="0" /><path
     style="fill:#ff0000"
     d="m 45.536383,86.569223 c 2.691977,-0.0063 7.097032,-0.0063 9.789009,0 2.691978,0.0063 0.489451,0.01144 -4.894505,0.01144 -5.383955,0 -7.586482,-0.0051 -4.894504,-0.01144 z"
     id="path3595"
     inkscape:connector-curvature="0" /><path
     style="fill:#ff0000"
     d="m 49.911606,86.613558 c 0.285605,-0.0077 0.752958,-0.0077 1.038563,0 0.285605,0.0077 0.05193,0.014 -0.519282,0.014 -0.571209,0 -0.804886,-0.0063 -0.519281,-0.014 z"
     id="path3597"
     inkscape:connector-curvature="0" /><path
     style="fill:#ff0000"
     d="m 34.026956,86.569242 c 0.712709,-0.0068 1.866177,-0.0068 2.563262,1.1e-5 0.697085,0.0068 0.113959,0.01242 -1.295835,0.01241 -1.409794,-6e-6 -1.980137,-0.0056 -1.267427,-0.01243 z"
     id="path3605"
     inkscape:connector-curvature="0" /><path
     style="fill:#ff0000"
     d="m 37.008745,86.569552 c 0.165082,-0.0085 0.423618,-0.0085 0.574524,1.41e-4 0.150907,0.0086 0.01584,0.01558 -0.300148,0.0155 -0.315989,-7.7e-5 -0.439458,-0.0071 -0.274376,-0.01564 z"
     id="path3607"
     inkscape:connector-curvature="0" /><path
     style="fill:#ff0000"
     d="m 63.291392,82.426017 0,-4.264738 -12.81631,0 -12.816311,0 7.21e-4,0.187825 c 3.97e-4,0.103304 0.03985,1.868309 0.08767,3.922233 0.04782,2.053924 0.08727,3.858704 0.08767,4.010622 l 7.16e-4,0.276213 -2.88367,-2.65e-4 c -1.586018,-1.33e-4 -3.71726,-0.0207 -4.736092,-0.04569 l -1.852422,-0.04543 -0.693529,-0.353823 C 26.515733,85.524172 25.550231,84.821904 24.51687,83.819627 23.211118,82.553153 22.220736,81.251501 21.388796,79.708422 l -0.369131,-0.684664 -0.03197,-8.220462 c -0.01758,-4.521255 -0.04934,-10.805822 -0.07058,-13.965706 -0.02124,-3.159883 -0.03054,-5.760158 -0.02067,-5.778388 0.0099,-0.01823 0.630615,-0.03315 1.379432,-0.03315 l 1.361485,0 0.02988,1.29268 c 0.07309,3.161881 0.167867,3.882962 0.606115,4.611563 0.231809,0.38539 0.812786,0.909205 1.244475,1.12203 0.70481,0.347478 -0.05816,0.322903 10.085903,0.324855 6.324638,0.0012 9.413376,-0.01408 10.230951,-0.05067 l 1.171146,-0.05241 0.319599,-0.156797 c 0.543514,-0.26665 1.257698,-1.009889 1.571946,-1.635899 0.188996,-0.376495 0.207678,-0.712484 0.207678,-3.734979 l 0,-2.825229 1.432845,0 1.432845,0 0.01876,3.016252 c 0.02058,3.308821 0.01644,3.255575 0.293696,3.775764 0.299443,0.561813 0.832259,1.086878 1.39016,1.369936 0.422779,0.214504 0.64967,0.235532 3.077287,0.285194 2.600693,0.0532 16.427836,0.01426 17.456699,-0.04917 0.724501,-0.04466 1.09153,-0.136921 1.546796,-0.388807 0.325742,-0.180223 0.902388,-0.735922 1.166267,-1.123897 0.305965,-0.449859 0.299583,-0.375111 0.32469,-3.80273 l 0.02258,-3.082544 1.346879,0 1.346875,0 -0.0318,14.329961 c -0.02541,11.44904 -0.04312,14.357661 -0.08811,14.467743 -0.09695,0.23723 -1.255619,2.310471 -1.615885,2.891355 -0.713581,1.150567 -1.677995,2.272188 -2.847144,3.311257 -0.613278,0.545043 -1.089099,0.886929 -1.57314,1.130323 -0.665542,0.33466 -1.038404,0.393723 -2.912568,0.461366 -0.931649,0.03363 -7.041594,0.177548 -7.537433,0.177548 -0.05538,0 -0.06396,-0.572255 -0.06396,-4.264738 z m 7.692813,-6.235594 c 1.018243,-0.299086 1.691413,-1.271157 1.619138,-2.338076 -0.06097,-0.900008 -0.515313,-1.515814 -1.38573,-1.878169 -0.95113,-0.395956 -2.177116,-0.0635 -2.705055,0.733542 -0.302337,0.456448 -0.443241,1.350874 -0.300308,1.906298 0.18927,0.735488 0.74529,1.341382 1.43258,1.561093 0.329662,0.105384 1.006386,0.11312 1.339375,0.01531 z M 31.484523,76.000057 c 0.405879,-0.141451 0.675907,-0.30861 0.931652,-0.576731 0.402232,-0.421699 0.571344,-0.883512 0.569725,-1.555816 -0.0017,-0.688368 -0.19036,-1.186278 -0.620492,-1.637226 -0.691961,-0.725449 -1.926161,-0.857384 -2.796428,-0.298935 -0.313513,0.201181 -0.648044,0.580833 -0.806432,0.915204 -0.140252,0.296084 -0.141485,0.304658 -0.141485,0.983697 l 0,0.68501 0.169686,0.347282 c 0.294947,0.60364 0.828803,1.045001 1.458775,1.206029 0.306396,0.07832 0.909721,0.04485 1.234999,-0.06851 z"
     id="path3609"
     inkscape:connector-curvature="0" /><path
     style="fill:#ff0000"
     d="m 37.227878,86.571902 c 0.04254,-0.01112 0.112143,-0.01112 0.15468,0 0.04254,0.01112 0.0077,0.02021 -0.07734,0.02021 -0.08507,0 -0.119877,-0.0091 -0.07734,-0.02021 z"
     id="path3611"
     inkscape:connector-curvature="0" /><path
     style="fill:#ff0000"
     d="m 37.007748,86.57174 c 0.043,-0.01121 0.102662,-0.01047 0.132583,0.0016 0.02992,0.01211 -0.0053,0.02127 -0.07818,0.02037 -0.07292,-9.01e-4 -0.0974,-0.01081 -0.0544,-0.02201 z"
     id="path3613"
     inkscape:connector-curvature="0" /><path
     style="fill:#ff0000"
     d="m 28.931426,86.597312 c -0.145289,-0.02116 -0.284501,-0.04789 -0.30936,-0.05941 -0.02486,-0.01152 0.481818,-0.01068 1.125948,0.0019 0.64413,0.01254 2.727277,0.02679 4.629214,0.03166 1.901938,0.0049 3.458125,0.02376 3.458194,0.042 1.76e-4,0.04647 -8.5809,0.03095 -8.903996,-0.0161 z"
     id="path3615"
     inkscape:connector-curvature="0" /></svg>